<svg xmlns="http://www.w3.org/2000/svg" xmlns:xlink="http://www.w3.org/1999/xlink" width="287" zoomAndPan="magnify" viewBox="0 0 215.25 198.749995" height="265" preserveAspectRatio="xMidYMid meet" version="1.2"><defs><clipPath id="0c2ec7c339"><path d="M 2.722656 69.015625 L 111.691406 69.015625 L 111.691406 163.195312 L 2.722656 163.195312 Z M 2.722656 69.015625 "/></clipPath><clipPath id="e0cd7cb564"><path d="M 24.964844 73.539062 C 10.613281 79.667969 7.101562 84.824219 7.101562 84.824219 C 7.101562 84.824219 7.773438 83.554688 8.667969 83.105469 C 10.761719 82.210938 17.9375 82.660156 21.300781 83.03125 C 23.617188 83.332031 26.007812 83.554688 27.054688 84.527344 C 27.804688 85.125 28.027344 86.023438 28.101562 86.917969 C 28.175781 87.964844 27.878906 89.085938 27.128906 90.28125 C 25.933594 92.226562 22.273438 95.214844 20.179688 96.484375 C 18.835938 97.234375 17.339844 98.128906 16.441406 97.832031 C 15.621094 97.53125 14.574219 95.738281 14.796875 95.4375 C 15.171875 94.914062 18.3125 96.335938 20.480469 96.558594 C 23.46875 96.933594 28.625 96.410156 31.316406 96.632812 C 32.886719 96.710938 34.082031 96.632812 35.128906 97.15625 C 36.023438 97.605469 36.621094 98.355469 37.144531 99.324219 C 37.816406 100.671875 38.042969 102.316406 38.339844 104.78125 C 38.9375 110.085938 37.296875 123.242188 38.863281 129.667969 C 39.984375 134.078125 42.453125 137.816406 44.171875 140.207031 C 45.21875 141.777344 46.1875 142.675781 47.308594 143.496094 C 48.355469 144.242188 48.953125 144.394531 50.671875 145.140625 C 55.753906 147.382812 75.1875 155.304688 81.691406 157.097656 C 84.605469 157.847656 85.726562 157.847656 88.191406 158.070312 C 91.332031 158.292969 95.59375 158.519531 99.179688 158.144531 C 102.691406 157.695312 107.550781 154.929688 109.566406 155.53125 C 110.613281 155.902344 111.4375 157.023438 111.585938 157.695312 C 111.734375 158.21875 111.585938 158.816406 111.289062 159.265625 C 110.914062 159.789062 109.941406 160.386719 109.269531 160.460938 C 108.746094 160.535156 108.222656 160.386719 107.773438 160.015625 C 107.25 159.640625 106.726562 158.667969 106.726562 157.996094 C 106.726562 157.324219 107.25 156.351562 107.773438 155.976562 C 108.371094 155.605469 109.492188 155.53125 110.089844 155.679688 C 110.613281 155.828125 111.0625 156.277344 111.289062 156.726562 C 111.585938 157.324219 111.734375 158.371094 111.4375 159.042969 C 110.914062 160.015625 109.195312 160.835938 107.625 161.507812 C 105.457031 162.332031 101.945312 162.703125 99.179688 162.929688 C 96.5625 163.078125 94.472656 163.078125 91.628906 162.855469 C 87.96875 162.480469 84.082031 162.105469 79 160.6875 C 70.628906 158.445312 53.214844 152.089844 46.710938 148.355469 C 43.574219 146.484375 42.003906 145.140625 40.285156 143.046875 C 38.492188 140.878906 37.144531 138.191406 36.023438 135.648438 C 34.902344 133.257812 34.007812 131.539062 33.484375 128.324219 C 32.585938 122.644531 35.351562 107.171875 33.707031 103.660156 C 33.109375 102.390625 32.511719 102.164062 31.316406 101.71875 C 28.625 100.671875 19.957031 101.417969 17.039062 100.894531 C 15.695312 100.597656 15.097656 100.445312 14.125 99.921875 C 13.003906 99.25 10.988281 98.128906 10.6875 97.082031 C 10.464844 96.1875 11.0625 94.839844 11.808594 94.167969 C 12.78125 93.269531 15.023438 93.570312 16.515625 92.824219 C 18.160156 92 19.878906 89.90625 21.375 89.160156 C 22.496094 88.636719 24.441406 88.636719 24.441406 88.414062 C 24.363281 87.816406 8.222656 89.085938 5.15625 87.515625 C 3.8125 86.84375 3.0625 85.871094 2.988281 84.75 C 2.765625 83.332031 4.109375 81.089844 5.382812 79.445312 C 6.949219 77.351562 9.566406 75.332031 12.40625 73.691406 C 15.621094 71.820312 21.824219 69.429688 23.84375 69.28125 C 24.589844 69.207031 24.964844 69.355469 25.410156 69.652344 C 25.785156 69.878906 26.160156 70.476562 26.308594 70.925781 C 26.457031 71.371094 26.382812 72.046875 26.160156 72.492188 C 25.933594 72.941406 24.964844 73.539062 24.964844 73.539062 "/></clipPath><clipPath id="5d96c7b6e1"><path d="M 0.722656 0.101562 L 109.691406 0.101562 L 109.691406 94.09375 L 0.722656 94.09375 Z M 0.722656 0.101562 "/></clipPath><clipPath id="f480177340"><path d="M 22.964844 4.539062 C 8.613281 10.667969 5.101562 15.824219 5.101562 15.824219 C 5.101562 15.824219 5.773438 14.554688 6.667969 14.105469 C 8.761719 13.210938 15.9375 13.660156 19.300781 14.03125 C 21.617188 14.332031 24.007812 14.554688 25.054688 15.527344 C 25.804688 16.125 26.027344 17.023438 26.101562 17.917969 C 26.175781 18.964844 25.878906 20.085938 25.128906 21.28125 C 23.933594 23.226562 20.273438 26.214844 18.179688 27.484375 C 16.835938 28.234375 15.339844 29.128906 14.441406 28.832031 C 13.621094 28.53125 12.574219 26.738281 12.796875 26.4375 C 13.171875 25.914062 16.3125 27.335938 18.480469 27.558594 C 21.46875 27.933594 26.625 27.410156 29.316406 27.632812 C 30.886719 27.710938 32.082031 27.632812 33.128906 28.15625 C 34.023438 28.605469 34.621094 29.355469 35.144531 30.324219 C 35.816406 31.671875 36.042969 33.316406 36.339844 35.78125 C 36.9375 41.085938 35.296875 54.242188 36.863281 60.667969 C 37.984375 65.078125 40.453125 68.816406 42.171875 71.207031 C 43.21875 72.777344 44.1875 73.675781 45.308594 74.496094 C 46.355469 75.242188 46.953125 75.394531 48.671875 76.140625 C 53.753906 78.382812 73.1875 86.304688 79.691406 88.097656 C 82.605469 88.847656 83.726562 88.847656 86.191406 89.070312 C 89.332031 89.292969 93.59375 89.519531 97.179688 89.144531 C 100.691406 88.695312 105.550781 85.929688 107.566406 86.53125 C 108.613281 86.902344 109.4375 88.023438 109.585938 88.695312 C 109.734375 89.21875 109.585938 89.816406 109.289062 90.265625 C 108.914062 90.789062 107.941406 91.386719 107.269531 91.460938 C 106.746094 91.535156 106.222656 91.386719 105.773438 91.015625 C 105.25 90.640625 104.726562 89.667969 104.726562 88.996094 C 104.726562 88.324219 105.25 87.351562 105.773438 86.976562 C 106.371094 86.605469 107.492188 86.53125 108.089844 86.679688 C 108.613281 86.828125 109.0625 87.277344 109.289062 87.726562 C 109.585938 88.324219 109.734375 89.371094 109.4375 90.042969 C 108.914062 91.015625 107.195312 91.835938 105.625 92.507812 C 103.457031 93.332031 99.945312 93.703125 97.179688 93.929688 C 94.5625 94.078125 92.472656 94.078125 89.628906 93.855469 C 85.96875 93.480469 82.082031 93.105469 77 91.6875 C 68.628906 89.445312 51.214844 83.089844 44.710938 79.355469 C 41.574219 77.484375 40.003906 76.140625 38.285156 74.046875 C 36.492188 71.878906 35.144531 69.191406 34.023438 66.648438 C 32.902344 64.257812 32.007812 62.539062 31.484375 59.324219 C 30.585938 53.644531 33.351562 38.171875 31.707031 34.660156 C 31.109375 33.390625 30.511719 33.164062 29.316406 32.71875 C 26.625 31.671875 17.957031 32.417969 15.039062 31.894531 C 13.695312 31.597656 13.097656 31.445312 12.125 30.921875 C 11.003906 30.25 8.988281 29.128906 8.6875 28.082031 C 8.464844 27.1875 9.0625 25.839844 9.808594 25.167969 C 10.78125 24.269531 13.023438 24.570312 14.515625 23.824219 C 16.160156 23 17.878906 20.90625 19.375 20.160156 C 20.496094 19.636719 22.441406 19.636719 22.441406 19.414062 C 22.363281 18.816406 6.222656 20.085938 3.15625 18.515625 C 1.8125 17.84375 1.0625 16.871094 0.988281 15.75 C 0.765625 14.332031 2.109375 12.089844 3.382812 10.445312 C 4.949219 8.351562 7.566406 6.332031 10.40625 4.691406 C 13.621094 2.820312 19.824219 0.429688 21.84375 0.28125 C 22.589844 0.207031 22.964844 0.355469 23.410156 0.652344 C 23.785156 0.878906 24.160156 1.476562 24.308594 1.925781 C 24.457031 2.371094 24.382812 3.046875 24.160156 3.492188 C 23.933594 3.941406 22.964844 4.539062 22.964844 4.539062 "/></clipPath><clipPath id="04fc718669"><rect x="0" width="110" y="0" height="95"/></clipPath><clipPath id="5834f0f7f5"><path d="M 83.527344 144.296875 L 90.28125 144.296875 L 90.28125 181.835938 L 83.527344 181.835938 Z M 83.527344 144.296875 "/></clipPath><clipPath id="7588ad7226"><path d="M 89.164062 146.710938 C 87.96875 158.144531 87.59375 165.46875 88.117188 170.253906 C 88.492188 173.914062 90.734375 178.101562 90.136719 179.96875 C 89.835938 180.941406 88.941406 181.613281 88.265625 181.761719 C 87.667969 181.914062 86.773438 181.464844 86.398438 181.015625 C 86.023438 180.566406 85.800781 179.59375 85.949219 179.074219 C 86.101562 178.472656 86.773438 177.800781 87.371094 177.578125 C 87.894531 177.429688 88.867188 177.503906 89.3125 177.875 C 89.835938 178.324219 90.285156 179.746094 90.0625 180.417969 C 89.761719 181.089844 88.492188 181.761719 87.820312 181.761719 C 87.222656 181.761719 86.625 181.390625 86.101562 180.640625 C 85.054688 178.996094 84.304688 174.4375 83.933594 170.253906 C 83.410156 163.898438 83.261719 149.476562 84.902344 146.113281 C 85.503906 144.992188 86.398438 144.394531 87.070312 144.320312 C 87.59375 144.242188 88.117188 144.46875 88.492188 144.839844 C 88.867188 145.289062 89.164062 146.710938 89.164062 146.710938 "/></clipPath><clipPath id="42c532b07f"><path d="M 0.527344 0.296875 L 7.28125 0.296875 L 7.28125 37.835938 L 0.527344 37.835938 Z M 0.527344 0.296875 "/></clipPath><clipPath id="a5745f4e3b"><path d="M 6.164062 2.710938 C 4.96875 14.144531 4.59375 21.46875 5.117188 26.253906 C 5.492188 29.914062 7.734375 34.101562 7.136719 35.96875 C 6.835938 36.941406 5.941406 37.613281 5.265625 37.761719 C 4.667969 37.914062 3.773438 37.464844 3.398438 37.015625 C 3.023438 36.566406 2.800781 35.59375 2.949219 35.074219 C 3.101562 34.472656 3.773438 33.800781 4.371094 33.578125 C 4.894531 33.429688 5.867188 33.503906 6.3125 33.875 C 6.835938 34.324219 7.285156 35.746094 7.0625 36.417969 C 6.761719 37.089844 5.492188 37.761719 4.820312 37.761719 C 4.222656 37.761719 3.625 37.390625 3.101562 36.640625 C 2.054688 34.996094 1.304688 30.4375 0.933594 26.253906 C 0.410156 19.898438 0.261719 5.476562 1.902344 2.113281 C 2.503906 0.992188 3.398438 0.394531 4.070312 0.320312 C 4.59375 0.242188 5.117188 0.46875 5.492188 0.839844 C 5.867188 1.289062 6.164062 2.710938 6.164062 2.710938 "/></clipPath><clipPath id="54237a8bc9"><rect x="0" width="8" y="0" height="38"/></clipPath><clipPath id="817b8afa87"><path d="M 73.222656 177.332031 L 90.308594 177.332031 L 90.308594 195.316406 L 73.222656 195.316406 Z M 73.222656 177.332031 "/></clipPath><clipPath id="1fe69435eb"><path d="M 89.761719 181.089844 C 75.710938 195.589844 75.039062 195.441406 74.441406 195.214844 C 73.992188 195.066406 73.542969 194.691406 73.46875 194.246094 C 73.246094 193.570312 73.542969 192.078125 73.917969 191.554688 C 74.292969 191.105469 74.8125 190.957031 75.261719 190.957031 C 75.859375 190.957031 76.832031 191.328125 77.207031 191.777344 C 77.65625 192.300781 77.730469 193.273438 77.65625 193.871094 C 77.503906 194.320312 77.207031 194.84375 76.757812 195.066406 C 76.160156 195.367188 74.664062 195.289062 74.066406 194.992188 C 73.617188 194.691406 73.320312 194.246094 73.246094 193.722656 C 73.171875 193.199219 73.320312 192.601562 73.769531 191.703125 C 75.261719 189.011719 84.382812 179.222656 86.699219 177.800781 C 87.371094 177.351562 87.746094 177.351562 88.265625 177.351562 C 88.789062 177.429688 89.386719 177.726562 89.6875 178.101562 C 90.0625 178.472656 90.285156 179.074219 90.285156 179.59375 C 90.285156 180.117188 89.761719 181.089844 89.761719 181.089844 "/></clipPath><clipPath id="18fd28e42c"><path d="M 0.222656 0.332031 L 17.308594 0.332031 L 17.308594 18.316406 L 0.222656 18.316406 Z M 0.222656 0.332031 "/></clipPath><clipPath id="b58f366cff"><path d="M 16.761719 4.089844 C 2.710938 18.589844 2.039062 18.441406 1.441406 18.214844 C 0.992188 18.066406 0.542969 17.691406 0.46875 17.246094 C 0.246094 16.570312 0.542969 15.078125 0.917969 14.554688 C 1.292969 14.105469 1.8125 13.957031 2.261719 13.957031 C 2.859375 13.957031 3.832031 14.328125 4.207031 14.777344 C 4.65625 15.300781 4.730469 16.273438 4.65625 16.871094 C 4.503906 17.320312 4.207031 17.84375 3.757812 18.066406 C 3.160156 18.367188 1.664062 18.289062 1.066406 17.992188 C 0.617188 17.691406 0.320312 17.246094 0.246094 16.722656 C 0.171875 16.199219 0.320312 15.601562 0.769531 14.703125 C 2.261719 12.011719 11.382812 2.222656 13.699219 0.800781 C 14.371094 0.351562 14.746094 0.351562 15.265625 0.351562 C 15.789062 0.429688 16.386719 0.726562 16.6875 1.101562 C 17.0625 1.472656 17.285156 2.074219 17.285156 2.59375 C 17.285156 3.117188 16.761719 4.089844 16.761719 4.089844 "/></clipPath><clipPath id="02958ce6a1"><rect x="0" width="18" y="0" height="19"/></clipPath><clipPath id="5fe5b5f571"><path d="M 85.394531 179.097656 L 96.695312 179.097656 L 96.695312 193.273438 L 85.394531 193.273438 Z M 85.394531 179.097656 "/></clipPath><clipPath id="18a147dbc2"><path d="M 89.464844 180.042969 C 93.648438 187.21875 95.816406 189.011719 96.339844 190.132812 C 96.636719 190.65625 96.714844 190.957031 96.636719 191.40625 C 96.5625 191.925781 96.039062 192.75 95.515625 193.046875 C 95.070312 193.273438 94.097656 193.347656 93.574219 193.046875 C 93.050781 192.675781 92.453125 191.40625 92.527344 190.730469 C 92.601562 190.132812 93.273438 189.460938 93.796875 189.238281 C 94.472656 189.085938 95.816406 189.386719 96.265625 189.910156 C 96.636719 190.507812 96.488281 191.925781 96.191406 192.449219 C 96.039062 192.824219 95.59375 193.125 95.144531 193.199219 C 94.621094 193.273438 93.949219 193.273438 93.199219 192.75 C 91.332031 191.554688 86.398438 184.453125 85.652344 182.210938 C 85.351562 181.316406 85.351562 180.714844 85.578125 180.195312 C 85.726562 179.746094 86.175781 179.222656 86.699219 179.148438 C 87.371094 178.996094 89.464844 180.042969 89.464844 180.042969 "/></clipPath><clipPath id="8aae38322a"><path d="M 0.394531 0.0976562 L 11.695312 0.0976562 L 11.695312 14.273438 L 0.394531 14.273438 Z M 0.394531 0.0976562 "/></clipPath><clipPath id="a2396e70eb"><path d="M 4.464844 1.042969 C 8.648438 8.21875 10.816406 10.011719 11.339844 11.132812 C 11.636719 11.65625 11.714844 11.957031 11.636719 12.40625 C 11.5625 12.925781 11.039062 13.75 10.515625 14.046875 C 10.070312 14.273438 9.097656 14.347656 8.574219 14.046875 C 8.050781 13.675781 7.453125 12.40625 7.527344 11.730469 C 7.601562 11.132812 8.273438 10.460938 8.796875 10.238281 C 9.472656 10.085938 10.816406 10.386719 11.265625 10.910156 C 11.636719 11.507812 11.488281 12.925781 11.191406 13.449219 C 11.039062 13.824219 10.59375 14.125 10.144531 14.199219 C 9.621094 14.273438 8.949219 14.273438 8.199219 13.75 C 6.332031 12.554688 1.398438 5.453125 0.652344 3.210938 C 0.351562 2.316406 0.351562 1.714844 0.578125 1.195312 C 0.726562 0.746094 1.175781 0.222656 1.699219 0.148438 C 2.371094 -0.00390625 4.464844 1.042969 4.464844 1.042969 "/></clipPath><clipPath id="32b926ec58"><rect x="0" width="12" y="0" height="15"/></clipPath><clipPath id="3889da44ec"><path d="M 22.765625 151.625 L 55.90625 151.625 L 55.90625 163.9375 L 22.765625 163.9375 Z M 22.765625 151.625 "/></clipPath><clipPath id="74ef98edad"><path d="M 54.035156 155.976562 C 32.886719 159.863281 27.207031 164.125 24.8125 163.898438 C 23.84375 163.824219 23.09375 163.226562 22.871094 162.703125 C 22.644531 162.105469 23.167969 160.910156 23.542969 160.460938 C 23.84375 160.238281 24.289062 160.089844 24.664062 160.164062 C 25.1875 160.164062 25.933594 160.613281 26.234375 160.984375 C 26.457031 161.285156 26.605469 161.734375 26.53125 162.179688 C 26.457031 162.628906 26.007812 163.378906 25.636719 163.675781 C 25.261719 163.898438 24.8125 163.976562 24.441406 163.898438 C 23.917969 163.824219 23.167969 163.378906 22.945312 162.855469 C 22.722656 162.332031 22.796875 161.359375 23.394531 160.613281 C 24.886719 158.667969 31.691406 155.976562 36.546875 154.558594 C 41.855469 152.914062 51.347656 150.894531 54.113281 151.941406 C 55.15625 152.316406 55.90625 153.289062 55.90625 153.960938 C 55.90625 154.707031 54.035156 155.976562 54.035156 155.976562 "/></clipPath><clipPath id="061e52f034"><path d="M 0.765625 0.625 L 33.90625 0.625 L 33.90625 12.9375 L 0.765625 12.9375 Z M 0.765625 0.625 "/></clipPath><clipPath id="bab03f2b0f"><path d="M 32.035156 4.976562 C 10.886719 8.863281 5.207031 13.125 2.8125 12.898438 C 1.84375 12.824219 1.09375 12.226562 0.871094 11.703125 C 0.644531 11.105469 1.167969 9.910156 1.542969 9.460938 C 1.84375 9.238281 2.289062 9.089844 2.664062 9.164062 C 3.1875 9.164062 3.933594 9.613281 4.234375 9.984375 C 4.457031 10.285156 4.605469 10.734375 4.53125 11.179688 C 4.457031 11.628906 4.007812 12.378906 3.636719 12.675781 C 3.261719 12.898438 2.8125 12.976562 2.441406 12.898438 C 1.917969 12.824219 1.167969 12.378906 0.945312 11.855469 C 0.722656 11.332031 0.796875 10.359375 1.394531 9.613281 C 2.886719 7.667969 9.691406 4.976562 14.546875 3.558594 C 19.855469 1.914062 29.347656 -0.105469 32.113281 0.941406 C 33.15625 1.316406 33.90625 2.289062 33.90625 2.960938 C 33.90625 3.707031 32.035156 4.976562 32.035156 4.976562 "/></clipPath><clipPath id="cf0a43be80"><rect x="0" width="34" y="0" height="13"/></clipPath><clipPath id="9ab12c6d34"><path d="M 10.355469 153.253906 L 26.925781 153.253906 L 26.925781 163.722656 L 10.355469 163.722656 Z M 10.355469 153.253906 "/></clipPath><clipPath id="7d493e7836"><path d="M 23.542969 163.453125 C 13.003906 157.25 11.808594 157.695312 11.210938 157.171875 C 10.6875 156.726562 10.390625 155.828125 10.390625 155.230469 C 10.390625 154.78125 10.613281 154.257812 10.988281 153.960938 C 11.511719 153.585938 13.003906 153.363281 13.601562 153.511719 C 14.050781 153.660156 14.425781 154.109375 14.574219 154.558594 C 14.796875 155.082031 14.796875 156.050781 14.5 156.574219 C 14.199219 157.097656 13.304688 157.621094 12.707031 157.695312 C 12.257812 157.773438 11.734375 157.546875 11.359375 157.324219 C 10.988281 157.023438 10.613281 156.652344 10.539062 156.203125 C 10.390625 155.679688 10.464844 154.632812 10.835938 154.183594 C 11.210938 153.660156 11.882812 153.363281 12.707031 153.289062 C 13.828125 153.210938 15.546875 153.886719 17.265625 154.558594 C 19.730469 155.679688 24.363281 158.21875 25.785156 159.566406 C 26.457031 160.238281 26.832031 160.761719 26.90625 161.359375 C 26.980469 161.882812 26.757812 162.480469 26.457031 162.855469 C 26.085938 163.300781 25.5625 163.601562 25.039062 163.675781 C 24.589844 163.824219 23.542969 163.453125 23.542969 163.453125 "/></clipPath><clipPath id="a73432fd27"><path d="M 0.355469 0.253906 L 16.925781 0.253906 L 16.925781 10.722656 L 0.355469 10.722656 Z M 0.355469 0.253906 "/></clipPath><clipPath id="42e4b58e42"><path d="M 13.542969 10.453125 C 3.003906 4.25 1.808594 4.695312 1.210938 4.171875 C 0.6875 3.726562 0.390625 2.828125 0.390625 2.230469 C 0.390625 1.78125 0.613281 1.257812 0.988281 0.960938 C 1.511719 0.585938 3.003906 0.363281 3.601562 0.511719 C 4.050781 0.660156 4.425781 1.109375 4.574219 1.558594 C 4.796875 2.082031 4.796875 3.050781 4.5 3.574219 C 4.199219 4.097656 3.304688 4.621094 2.707031 4.695312 C 2.257812 4.773438 1.734375 4.546875 1.359375 4.324219 C 0.988281 4.023438 0.613281 3.652344 0.539062 3.203125 C 0.390625 2.679688 0.464844 1.632812 0.835938 1.183594 C 1.210938 0.660156 1.882812 0.363281 2.707031 0.289062 C 3.828125 0.210938 5.546875 0.886719 7.265625 1.558594 C 9.730469 2.679688 14.363281 5.21875 15.785156 6.566406 C 16.457031 7.238281 16.832031 7.761719 16.90625 8.359375 C 16.980469 8.882812 16.757812 9.480469 16.457031 9.855469 C 16.085938 10.300781 15.5625 10.601562 15.039062 10.675781 C 14.589844 10.824219 13.542969 10.453125 13.542969 10.453125 "/></clipPath><clipPath id="250b766f9e"><rect x="0" width="17" y="0" height="11"/></clipPath><clipPath id="196fcca37f"><path d="M 9.832031 161.25 L 31.410156 161.25 L 31.410156 171.65625 L 9.832031 171.65625 Z M 9.832031 161.25 "/></clipPath><clipPath id="55c1b53518"><path d="M 29.96875 165.621094 C 11.285156 171.746094 10.6875 171.449219 10.3125 170.925781 C 9.941406 170.328125 9.941406 168.832031 10.3125 168.234375 C 10.613281 167.710938 11.585938 167.261719 12.183594 167.339844 C 12.855469 167.414062 14.050781 168.382812 14.199219 169.058594 C 14.425781 169.65625 14.125 170.625 13.675781 171.074219 C 13.152344 171.523438 11.734375 171.824219 11.0625 171.523438 C 10.539062 171.300781 9.941406 170.476562 9.867188 169.804688 C 9.867188 169.132812 10.3125 168.308594 11.210938 167.5625 C 13.753906 165.46875 26.234375 161.433594 28.925781 161.285156 C 29.671875 161.285156 30.046875 161.433594 30.492188 161.734375 C 30.867188 161.957031 31.242188 162.554688 31.316406 163.003906 C 31.464844 163.453125 31.390625 164.125 31.167969 164.574219 C 30.941406 165.019531 29.96875 165.621094 29.96875 165.621094 "/></clipPath><clipPath id="5492670602"><path d="M 0.832031 0.25 L 22.410156 0.25 L 22.410156 10.65625 L 0.832031 10.65625 Z M 0.832031 0.25 "/></clipPath><clipPath id="a6161294c6"><path d="M 20.96875 4.621094 C 2.285156 10.746094 1.6875 10.449219 1.3125 9.925781 C 0.941406 9.328125 0.941406 7.832031 1.3125 7.234375 C 1.613281 6.710938 2.585938 6.261719 3.183594 6.339844 C 3.855469 6.414062 5.050781 7.382812 5.199219 8.058594 C 5.425781 8.65625 5.125 9.625 4.675781 10.074219 C 4.152344 10.523438 2.734375 10.824219 2.0625 10.523438 C 1.539062 10.300781 0.941406 9.476562 0.867188 8.804688 C 0.867188 8.132812 1.3125 7.308594 2.210938 6.5625 C 4.753906 4.46875 17.234375 0.433594 19.925781 0.285156 C 20.671875 0.285156 21.046875 0.433594 21.492188 0.734375 C 21.867188 0.957031 22.242188 1.554688 22.316406 2.003906 C 22.464844 2.453125 22.390625 3.125 22.167969 3.574219 C 21.941406 4.019531 20.96875 4.621094 20.96875 4.621094 "/></clipPath><clipPath id="280e773259"><rect x="0" width="23" y="0" height="11"/></clipPath><clipPath id="c440285d10"><path d="M 21.730469 161.234375 L 28.523438 161.234375 L 28.523438 178.285156 L 21.730469 178.285156 Z M 21.730469 161.234375 "/></clipPath><clipPath id="4a8fe57518"><path d="M 26.308594 162.929688 C 28.175781 171.898438 28.925781 175.335938 28.25 176.753906 C 27.804688 177.652344 26.757812 178.324219 26.085938 178.25 C 25.410156 178.25 24.289062 177.277344 24.066406 176.605469 C 23.84375 176.007812 24.214844 175.035156 24.589844 174.664062 C 24.886719 174.289062 25.335938 174.066406 25.785156 173.988281 C 26.234375 173.914062 26.757812 173.914062 27.128906 174.140625 C 27.652344 174.4375 28.175781 175.261719 28.328125 175.859375 C 28.402344 176.308594 28.328125 176.832031 28.027344 177.203125 C 27.726562 177.652344 26.90625 178.25 26.308594 178.25 C 25.636719 178.25 24.738281 177.726562 24.140625 176.832031 C 22.722656 174.664062 21.152344 165.320312 21.972656 163.003906 C 22.347656 162.03125 23.242188 161.507812 23.84375 161.285156 C 24.363281 161.210938 24.964844 161.433594 25.410156 161.65625 C 25.785156 161.957031 26.308594 162.929688 26.308594 162.929688 "/></clipPath><clipPath id="d1d7131813"><path d="M 0.730469 0.234375 L 7.523438 0.234375 L 7.523438 17.285156 L 0.730469 17.285156 Z M 0.730469 0.234375 "/></clipPath><clipPath id="100b734b79"><path d="M 5.308594 1.929688 C 7.175781 10.898438 7.925781 14.335938 7.25 15.753906 C 6.804688 16.652344 5.757812 17.324219 5.085938 17.25 C 4.410156 17.25 3.289062 16.277344 3.066406 15.605469 C 2.84375 15.007812 3.214844 14.035156 3.589844 13.664062 C 3.886719 13.289062 4.335938 13.066406 4.785156 12.988281 C 5.234375 12.914062 5.757812 12.914062 6.128906 13.140625 C 6.652344 13.4375 7.175781 14.261719 7.328125 14.859375 C 7.402344 15.308594 7.328125 15.832031 7.027344 16.203125 C 6.726562 16.652344 5.90625 17.25 5.308594 17.25 C 4.636719 17.25 3.738281 16.726562 3.140625 15.832031 C 1.722656 13.664062 0.152344 4.320312 0.972656 2.003906 C 1.347656 1.03125 2.242188 0.507812 2.84375 0.285156 C 3.363281 0.210938 3.964844 0.433594 4.410156 0.65625 C 4.785156 0.957031 5.308594 1.929688 5.308594 1.929688 "/></clipPath><clipPath id="7f92fde594"><rect x="0" width="8" y="0" height="18"/></clipPath><clipPath id="1b43c4d876"><path d="M 78.710938 42.796875 L 119.648438 42.796875 L 119.648438 96.53125 L 78.710938 96.53125 Z M 78.710938 42.796875 "/></clipPath><clipPath id="24297417a4"><path d="M 78.777344 93.644531 C 100.449219 57.769531 101.570312 56.351562 104.1875 53.660156 C 107.625 50.296875 114.949219 43.867188 117.042969 43.046875 C 117.566406 42.820312 117.863281 42.898438 118.238281 43.046875 C 118.6875 43.195312 119.359375 43.71875 119.507812 44.242188 C 119.65625 44.839844 119.210938 46.035156 118.761719 46.410156 C 118.3125 46.707031 117.492188 46.707031 116.96875 46.558594 C 116.59375 46.410156 116.292969 46.109375 116.070312 45.738281 C 115.921875 45.4375 115.773438 44.988281 115.847656 44.617188 C 115.921875 44.09375 116.371094 43.34375 116.894531 43.121094 C 117.414062 42.898438 118.6875 43.121094 119.058594 43.570312 C 119.507812 44.019531 119.65625 44.988281 119.285156 45.8125 C 118.460938 47.828125 112.332031 50.59375 109.34375 53.511719 C 106.28125 56.425781 104.1875 58.890625 101.046875 63.300781 C 95.742188 70.847656 85.949219 93.496094 81.914062 95.960938 C 80.867188 96.632812 79.820312 96.632812 79.296875 96.1875 C 78.777344 95.8125 78.777344 93.644531 78.777344 93.644531 "/></clipPath><clipPath id="3c3bfd05ff"><path d="M 0.710938 0.796875 L 41.648438 0.796875 L 41.648438 54.53125 L 0.710938 54.53125 Z M 0.710938 0.796875 "/></clipPath><clipPath id="b0acb971e3"><path d="M 0.777344 51.644531 C 22.449219 15.769531 23.570312 14.351562 26.1875 11.660156 C 29.625 8.296875 36.949219 1.867188 39.042969 1.046875 C 39.566406 0.820312 39.863281 0.898438 40.238281 1.046875 C 40.6875 1.195312 41.359375 1.71875 41.507812 2.242188 C 41.65625 2.839844 41.210938 4.035156 40.761719 4.410156 C 40.3125 4.707031 39.492188 4.707031 38.96875 4.558594 C 38.59375 4.410156 38.292969 4.109375 38.070312 3.738281 C 37.921875 3.4375 37.773438 2.988281 37.847656 2.617188 C 37.921875 2.09375 38.371094 1.34375 38.894531 1.121094 C 39.414062 0.898438 40.6875 1.121094 41.058594 1.570312 C 41.507812 2.019531 41.65625 2.988281 41.285156 3.8125 C 40.460938 5.828125 34.332031 8.59375 31.34375 11.511719 C 28.28125 14.425781 26.1875 16.890625 23.046875 21.300781 C 17.742188 28.847656 7.949219 51.496094 3.914062 53.960938 C 2.867188 54.632812 1.820312 54.632812 1.296875 54.1875 C 0.777344 53.8125 0.777344 51.644531 0.777344 51.644531 "/></clipPath><clipPath id="d23d2753c9"><rect x="0" width="42" y="0" height="55"/></clipPath><clipPath id="73bab28187"><path d="M 122.082031 39.941406 L 173.203125 39.941406 L 173.203125 45.832031 L 122.082031 45.832031 Z M 122.082031 39.941406 "/></clipPath><clipPath id="3b41903def"><path d="M 124.066406 41.179688 C 167.714844 39.160156 171.601562 39.980469 172.722656 41.402344 C 173.320312 42.148438 173.246094 43.496094 172.796875 44.09375 C 172.425781 44.617188 171.003906 45.0625 170.332031 44.839844 C 169.734375 44.691406 169.0625 43.941406 168.910156 43.34375 C 168.761719 42.746094 168.984375 41.851562 169.359375 41.402344 C 169.808594 40.953125 170.707031 40.65625 171.304688 40.65625 C 171.75 40.65625 172.273438 40.878906 172.574219 41.253906 C 172.949219 41.777344 173.246094 43.195312 172.949219 43.867188 C 172.722656 44.390625 171.902344 44.914062 171.226562 44.988281 C 170.332031 45.0625 169.359375 43.71875 167.789062 43.34375 C 164.949219 42.671875 160.09375 42.746094 154.785156 42.820312 C 146.714844 43.046875 127.878906 47.082031 123.917969 45.4375 C 122.722656 44.914062 122.050781 43.941406 122.125 43.269531 C 122.125 42.523438 124.066406 41.179688 124.066406 41.179688 "/></clipPath><clipPath id="c3225a1a98"><path d="M 0.0820312 0.941406 L 51.203125 0.941406 L 51.203125 6.832031 L 0.0820312 6.832031 Z M 0.0820312 0.941406 "/></clipPath><clipPath id="d34e4f3a21"><path d="M 2.066406 2.179688 C 45.714844 0.160156 49.601562 0.980469 50.722656 2.402344 C 51.320312 3.148438 51.246094 4.496094 50.796875 5.09375 C 50.425781 5.617188 49.003906 6.0625 48.332031 5.839844 C 47.734375 5.691406 47.0625 4.941406 46.910156 4.34375 C 46.761719 3.746094 46.984375 2.851562 47.359375 2.402344 C 47.808594 1.953125 48.707031 1.65625 49.304688 1.65625 C 49.75 1.65625 50.273438 1.878906 50.574219 2.253906 C 50.949219 2.777344 51.246094 4.195312 50.949219 4.867188 C 50.722656 5.390625 49.902344 5.914062 49.226562 5.988281 C 48.332031 6.0625 47.359375 4.71875 45.789062 4.34375 C 42.949219 3.671875 38.09375 3.746094 32.785156 3.820312 C 24.714844 4.046875 5.878906 8.082031 1.917969 6.4375 C 0.722656 5.914062 0.0507812 4.941406 0.125 4.269531 C 0.125 3.523438 2.066406 2.179688 2.066406 2.179688 "/></clipPath><clipPath id="e470791264"><rect x="0" width="52" y="0" height="7"/></clipPath><clipPath id="6fc5113a76"><path d="M 113.847656 45.90625 L 173 45.90625 L 173 110.453125 L 113.847656 110.453125 Z M 113.847656 45.90625 "/></clipPath><clipPath id="2c27afab81"><path d="M 172.871094 48.800781 C 169.359375 54.183594 164.949219 57.996094 162.183594 59.9375 C 160.167969 61.359375 158.746094 62.179688 156.578125 63.152344 C 153.8125 64.421875 146.789062 65.394531 146.714844 66.589844 C 146.714844 67.484375 151.046875 68.160156 152.617188 69.28125 C 153.964844 70.175781 155.011719 71.074219 155.832031 72.492188 C 156.804688 74.210938 157.253906 77.277344 157.550781 79.21875 C 157.699219 80.714844 157.851562 81.910156 157.625 83.105469 C 157.328125 84.152344 156.804688 85.125 156.132812 85.945312 C 155.382812 86.84375 154.785156 87.589844 153.367188 88.113281 C 150.226562 89.308594 138.492188 86.917969 136.699219 89.160156 C 135.652344 90.429688 137.519531 92.972656 137.59375 95.140625 C 137.671875 97.679688 137.371094 101.492188 136.773438 103.511719 C 136.324219 104.78125 135.875 105.679688 135.203125 106.5 C 134.457031 107.246094 133.632812 107.769531 132.511719 108.292969 C 131.09375 108.890625 129.148438 109.265625 126.984375 109.566406 C 123.992188 109.9375 118.386719 110.609375 116.21875 109.9375 C 115.171875 109.566406 114.351562 108.964844 114.050781 108.292969 C 113.828125 107.695312 114.128906 106.722656 114.5 106.277344 C 114.875 105.828125 115.847656 105.453125 116.445312 105.453125 C 117.042969 105.527344 117.863281 106.125 118.164062 106.648438 C 118.460938 107.171875 118.460938 108.144531 118.164062 108.742188 C 117.863281 109.265625 117.042969 109.863281 116.445312 109.863281 C 115.847656 109.9375 114.875 109.640625 114.5 109.117188 C 114.128906 108.59375 113.976562 107.097656 114.351562 106.5 C 114.652344 105.902344 115.25 105.753906 116.21875 105.453125 C 118.460938 104.78125 126.308594 105.304688 129.074219 104.558594 C 130.421875 104.183594 131.167969 104.183594 131.914062 103.136719 C 133.410156 100.96875 132.214844 92.300781 133.109375 89.085938 C 133.632812 87.292969 133.710938 86.097656 135.054688 85.125 C 137.746094 83.332031 148.582031 84.902344 151.273438 84.003906 C 152.320312 83.703125 152.84375 83.554688 153.214844 82.808594 C 153.964844 81.238281 153.515625 76.230469 151.945312 73.839844 C 150.152344 71.148438 143.050781 70.175781 142.15625 68.007812 C 141.632812 66.738281 142.15625 65.09375 143.199219 63.898438 C 144.996094 61.878906 151.722656 60.910156 154.710938 59.488281 C 156.730469 58.515625 157.925781 57.84375 159.644531 56.648438 C 162.035156 54.929688 165.773438 52.089844 167.492188 49.996094 C 168.6875 48.652344 168.910156 46.558594 169.882812 46.109375 C 170.628906 45.738281 172.125 45.960938 172.574219 46.484375 C 173.023438 46.933594 172.871094 48.800781 172.871094 48.800781 "/></clipPath><clipPath id="52bc33ed91"><path d="M 0.847656 0.90625 L 60 0.90625 L 60 65.453125 L 0.847656 65.453125 Z M 0.847656 0.90625 "/></clipPath><clipPath id="a826f2d43b"><path d="M 59.871094 3.800781 C 56.359375 9.183594 51.949219 12.996094 49.183594 14.9375 C 47.167969 16.359375 45.746094 17.179688 43.578125 18.152344 C 40.8125 19.421875 33.789062 20.394531 33.714844 21.589844 C 33.714844 22.484375 38.046875 23.160156 39.617188 24.28125 C 40.964844 25.175781 42.011719 26.074219 42.832031 27.492188 C 43.804688 29.210938 44.253906 32.277344 44.550781 34.21875 C 44.699219 35.714844 44.851562 36.910156 44.625 38.105469 C 44.328125 39.152344 43.804688 40.125 43.132812 40.945312 C 42.382812 41.84375 41.785156 42.589844 40.367188 43.113281 C 37.226562 44.308594 25.492188 41.917969 23.699219 44.160156 C 22.652344 45.429688 24.519531 47.972656 24.59375 50.140625 C 24.671875 52.679688 24.371094 56.492188 23.773438 58.511719 C 23.324219 59.78125 22.875 60.679688 22.203125 61.5 C 21.457031 62.246094 20.632812 62.769531 19.511719 63.292969 C 18.09375 63.890625 16.148438 64.265625 13.984375 64.566406 C 10.992188 64.9375 5.386719 65.609375 3.21875 64.9375 C 2.171875 64.566406 1.351562 63.964844 1.050781 63.292969 C 0.828125 62.695312 1.128906 61.722656 1.5 61.277344 C 1.875 60.828125 2.847656 60.453125 3.445312 60.453125 C 4.042969 60.527344 4.863281 61.125 5.164062 61.648438 C 5.460938 62.171875 5.460938 63.144531 5.164062 63.742188 C 4.863281 64.265625 4.042969 64.863281 3.445312 64.863281 C 2.847656 64.9375 1.875 64.640625 1.5 64.117188 C 1.128906 63.59375 0.976562 62.097656 1.351562 61.5 C 1.652344 60.902344 2.25 60.753906 3.21875 60.453125 C 5.460938 59.78125 13.308594 60.304688 16.074219 59.558594 C 17.421875 59.183594 18.167969 59.183594 18.914062 58.136719 C 20.410156 55.96875 19.214844 47.300781 20.109375 44.085938 C 20.632812 42.292969 20.710938 41.097656 22.054688 40.125 C 24.746094 38.332031 35.582031 39.902344 38.273438 39.003906 C 39.320312 38.703125 39.84375 38.554688 40.214844 37.808594 C 40.964844 36.238281 40.515625 31.230469 38.945312 28.839844 C 37.152344 26.148438 30.050781 25.175781 29.15625 23.007812 C 28.632812 21.738281 29.15625 20.09375 30.199219 18.898438 C 31.996094 16.878906 38.722656 15.910156 41.710938 14.488281 C 43.730469 13.515625 44.925781 12.84375 46.644531 11.648438 C 49.035156 9.929688 52.773438 7.089844 54.492188 4.996094 C 55.6875 3.652344 55.910156 1.558594 56.882812 1.109375 C 57.628906 0.738281 59.125 0.960938 59.574219 1.484375 C 60.023438 1.933594 59.871094 3.800781 59.871094 3.800781 "/></clipPath><clipPath id="d1c2523fb0"><rect x="0" width="60" y="0" height="66"/></clipPath><clipPath id="9a4ce4182b"><path d="M 109.398438 106.851562 L 211.238281 106.851562 L 211.238281 175.132812 L 109.398438 175.132812 Z M 109.398438 106.851562 "/></clipPath><clipPath id="ca69e766be"><path d="M 133.933594 106.949219 C 145.070312 111.882812 190.808594 139.3125 201.648438 147.007812 C 205.609375 149.847656 207.777344 151.492188 209.269531 153.363281 C 210.242188 154.558594 210.691406 155.453125 210.914062 156.574219 C 211.214844 157.695312 211.140625 158.96875 210.914062 159.9375 C 210.617188 160.910156 210.316406 161.734375 209.570312 162.554688 C 208.449219 163.675781 206.429688 164.871094 204.1875 165.46875 C 201.199219 166.367188 195.667969 166.742188 192.679688 166.140625 C 190.585938 165.769531 188.34375 163.226562 187.671875 163.675781 C 187 164.199219 189.164062 167.9375 189.015625 169.582031 C 188.867188 170.703125 188.34375 171.671875 187.671875 172.570312 C 187.074219 173.390625 186.027344 174.140625 185.203125 174.511719 C 184.457031 174.886719 183.710938 174.886719 182.886719 174.960938 C 181.992188 175.035156 181.019531 175.1875 180.046875 174.960938 C 178.925781 174.738281 177.804688 174.066406 176.609375 173.167969 C 174.964844 172.046875 172.949219 170.402344 171.453125 168.382812 C 169.585938 166.066406 166.894531 161.582031 166.742188 159.714844 C 166.742188 158.742188 167.191406 158.070312 167.714844 157.621094 C 168.164062 157.171875 169.285156 157.023438 169.882812 157.171875 C 170.480469 157.324219 171.003906 157.621094 171.304688 158.21875 C 171.75 159.191406 171.675781 161.507812 171.453125 162.929688 C 171.378906 163.976562 171.226562 164.796875 170.628906 165.84375 C 169.808594 167.339844 167.417969 169.804688 165.921875 170.777344 C 164.949219 171.449219 164.203125 171.824219 163.082031 171.824219 C 161.511719 171.898438 158.972656 171.074219 157.476562 170.328125 C 156.28125 169.65625 155.683594 168.832031 154.636719 167.710938 C 153.066406 165.992188 150.300781 162.703125 149.253906 160.910156 C 148.65625 159.863281 149.179688 158.96875 148.207031 158.21875 C 145.367188 156.128906 129.824219 155.679688 123.019531 156.5 C 118.238281 157.023438 113.082031 160.613281 111.0625 160.089844 C 110.242188 159.9375 109.792969 159.265625 109.566406 158.667969 C 109.417969 158.070312 109.492188 157.097656 109.941406 156.652344 C 110.390625 156.128906 111.808594 155.753906 112.484375 155.976562 C 113.082031 156.128906 113.753906 156.949219 113.828125 157.546875 C 113.976562 158.144531 113.753906 159.117188 113.304688 159.566406 C 112.707031 160.015625 111.289062 160.238281 110.613281 159.9375 C 110.089844 159.714844 109.566406 158.816406 109.492188 158.21875 C 109.417969 157.621094 109.644531 156.875 110.242188 156.277344 C 111.585938 155.082031 116.59375 153.808594 118.984375 153.210938 C 120.628906 152.839844 121.226562 152.765625 123.171875 152.613281 C 127.953125 152.390625 143.875 152.539062 148.207031 153.289062 C 149.703125 153.585938 150.375 153.585938 151.199219 154.332031 C 152.246094 155.230469 152.46875 157.25 153.589844 158.816406 C 155.234375 161.136719 158.597656 165.695312 160.691406 166.441406 C 161.886719 166.890625 163.082031 166.515625 164.054688 166.066406 C 165.023438 165.542969 165.996094 164.574219 166.59375 163.453125 C 167.265625 162.03125 166.667969 159.042969 167.265625 158.070312 C 167.640625 157.472656 168.238281 157.25 168.761719 157.097656 C 169.285156 157.023438 169.808594 157.023438 170.40625 157.398438 C 172.050781 158.519531 174.441406 165.171875 176.683594 167.261719 C 178.253906 168.832031 180.273438 169.953125 181.691406 170.105469 C 182.664062 170.253906 183.785156 170.105469 184.234375 169.355469 C 184.980469 168.308594 183.636719 164.722656 183.859375 162.929688 C 184.007812 161.734375 184.160156 160.460938 184.90625 159.789062 C 185.726562 159.117188 187.371094 159.117188 188.792969 159.339844 C 190.734375 159.566406 193.050781 161.507812 195.070312 161.882812 C 196.9375 162.179688 198.734375 161.882812 200.527344 161.65625 C 202.320312 161.433594 204.710938 161.433594 205.832031 160.6875 C 206.582031 160.164062 207.027344 159.191406 207.179688 158.371094 C 207.328125 157.621094 207.027344 156.726562 206.65625 156.050781 C 206.355469 155.378906 205.90625 155.15625 205.085938 154.410156 C 202.695312 152.316406 196.863281 148.054688 190.285156 143.796875 C 177.953125 135.722656 143.277344 115.246094 135.875 111.582031 C 134.007812 110.761719 132.960938 110.984375 132.289062 110.238281 C 131.765625 109.640625 131.390625 108.445312 131.691406 107.84375 C 131.914062 107.324219 133.933594 106.949219 133.933594 106.949219 "/></clipPath><clipPath id="97f9aec76f"><path d="M 0.398438 0.890625 L 102.238281 0.890625 L 102.238281 69.132812 L 0.398438 69.132812 Z M 0.398438 0.890625 "/></clipPath><clipPath id="ecfd13e0fd"><path d="M 24.933594 0.949219 C 36.070312 5.882812 81.808594 33.3125 92.648438 41.007812 C 96.609375 43.847656 98.777344 45.492188 100.269531 47.363281 C 101.242188 48.558594 101.691406 49.453125 101.914062 50.574219 C 102.214844 51.695312 102.140625 52.96875 101.914062 53.9375 C 101.617188 54.910156 101.316406 55.734375 100.570312 56.554688 C 99.449219 57.675781 97.429688 58.871094 95.1875 59.46875 C 92.199219 60.367188 86.667969 60.742188 83.679688 60.140625 C 81.585938 59.769531 79.34375 57.226562 78.671875 57.675781 C 78 58.199219 80.164062 61.9375 80.015625 63.582031 C 79.867188 64.703125 79.34375 65.671875 78.671875 66.570312 C 78.074219 67.390625 77.027344 68.140625 76.203125 68.511719 C 75.457031 68.886719 74.710938 68.886719 73.886719 68.960938 C 72.992188 69.035156 72.019531 69.1875 71.046875 68.960938 C 69.925781 68.738281 68.804688 68.066406 67.609375 67.167969 C 65.964844 66.046875 63.949219 64.402344 62.453125 62.382812 C 60.585938 60.066406 57.894531 55.582031 57.742188 53.714844 C 57.742188 52.742188 58.191406 52.070312 58.714844 51.621094 C 59.164062 51.171875 60.285156 51.023438 60.882812 51.171875 C 61.480469 51.324219 62.003906 51.621094 62.304688 52.21875 C 62.75 53.191406 62.675781 55.507812 62.453125 56.929688 C 62.378906 57.976562 62.226562 58.796875 61.628906 59.84375 C 60.808594 61.339844 58.417969 63.804688 56.921875 64.777344 C 55.949219 65.449219 55.203125 65.824219 54.082031 65.824219 C 52.511719 65.898438 49.972656 65.074219 48.476562 64.328125 C 47.28125 63.65625 46.683594 62.832031 45.636719 61.710938 C 44.066406 59.992188 41.300781 56.703125 40.253906 54.910156 C 39.65625 53.863281 40.179688 52.96875 39.207031 52.21875 C 36.367188 50.128906 20.824219 49.679688 14.019531 50.5 C 9.238281 51.023438 4.082031 54.613281 2.0625 54.089844 C 1.242188 53.9375 0.792969 53.265625 0.566406 52.667969 C 0.417969 52.070312 0.492188 51.097656 0.941406 50.652344 C 1.390625 50.128906 2.808594 49.753906 3.484375 49.976562 C 4.082031 50.128906 4.753906 50.949219 4.828125 51.546875 C 4.976562 52.144531 4.753906 53.117188 4.304688 53.566406 C 3.707031 54.015625 2.289062 54.238281 1.613281 53.9375 C 1.089844 53.714844 0.566406 52.816406 0.492188 52.21875 C 0.417969 51.621094 0.644531 50.875 1.242188 50.277344 C 2.585938 49.082031 7.59375 47.808594 9.984375 47.210938 C 11.628906 46.839844 12.226562 46.765625 14.171875 46.613281 C 18.953125 46.390625 34.875 46.539062 39.207031 47.289062 C 40.703125 47.585938 41.375 47.585938 42.199219 48.332031 C 43.246094 49.230469 43.46875 51.25 44.589844 52.816406 C 46.234375 55.136719 49.597656 59.695312 51.691406 60.441406 C 52.886719 60.890625 54.082031 60.515625 55.054688 60.066406 C 56.023438 59.542969 56.996094 58.574219 57.59375 57.453125 C 58.265625 56.03125 57.667969 53.042969 58.265625 52.070312 C 58.640625 51.472656 59.238281 51.25 59.761719 51.097656 C 60.285156 51.023438 60.808594 51.023438 61.40625 51.398438 C 63.050781 52.519531 65.441406 59.171875 67.683594 61.261719 C 69.253906 62.832031 71.273438 63.953125 72.691406 64.105469 C 73.664062 64.253906 74.785156 64.105469 75.234375 63.355469 C 75.980469 62.308594 74.636719 58.722656 74.859375 56.929688 C 75.007812 55.734375 75.160156 54.460938 75.90625 53.789062 C 76.726562 53.117188 78.371094 53.117188 79.792969 53.339844 C 81.734375 53.566406 84.050781 55.507812 86.070312 55.882812 C 87.9375 56.179688 89.734375 55.882812 91.527344 55.65625 C 93.320312 55.433594 95.710938 55.433594 96.832031 54.6875 C 97.582031 54.164062 98.027344 53.191406 98.179688 52.371094 C 98.328125 51.621094 98.027344 50.726562 97.65625 50.050781 C 97.355469 49.378906 96.90625 49.15625 96.085938 48.410156 C 93.695312 46.316406 87.863281 42.054688 81.285156 37.796875 C 68.953125 29.722656 34.277344 9.246094 26.875 5.582031 C 25.007812 4.761719 23.960938 4.984375 23.289062 4.238281 C 22.765625 3.640625 22.390625 2.445312 22.691406 1.84375 C 22.914062 1.324219 24.933594 0.949219 24.933594 0.949219 "/></clipPath><clipPath id="c6d2d4a9d5"><rect x="0" width="103" y="0" height="70"/></clipPath><clipPath id="7232b314fe"><path d="M 19.765625 47.5625 L 92 47.5625 L 92 83.597656 L 19.765625 83.597656 Z M 19.765625 47.5625 "/></clipPath><clipPath id="d4ff7e0da2"><path d="M 21.226562 71.296875 C 19.730469 65.765625 19.582031 64.945312 20.253906 63.898438 C 21.75 61.507812 29.222656 57.320312 32.8125 55.078125 C 35.425781 53.433594 37.445312 52.464844 39.835938 51.34375 C 42.152344 50.296875 44.695312 49.101562 46.863281 48.503906 C 48.507812 47.980469 50.226562 47.457031 51.496094 47.605469 C 52.46875 47.679688 52.914062 47.980469 53.886719 48.503906 C 55.90625 49.699219 60.390625 53.359375 62.480469 55.527344 C 63.902344 57.097656 64.5 57.996094 65.695312 59.863281 C 67.640625 63 69.507812 70.476562 72.648438 72.792969 C 75.113281 74.585938 78.699219 73.390625 81.464844 74.4375 C 84.082031 75.410156 87.070312 78.25 88.867188 78.773438 C 89.6875 79.070312 90.359375 78.695312 90.808594 78.921875 C 91.332031 79.144531 91.707031 79.667969 91.855469 80.117188 C 92.003906 80.789062 91.929688 81.910156 91.554688 82.433594 C 91.183594 83.03125 90.210938 83.554688 89.539062 83.480469 C 88.714844 83.40625 87.445312 82.433594 87.144531 81.6875 C 86.921875 81.015625 87.222656 79.894531 87.667969 79.445312 C 88.117188 78.921875 89.164062 78.472656 89.835938 78.546875 C 90.507812 78.695312 91.40625 79.296875 91.78125 79.894531 C 92.078125 80.492188 92.078125 81.613281 91.707031 82.210938 C 91.257812 82.882812 90.136719 83.480469 89.015625 83.40625 C 87.070312 83.332031 84.15625 80.265625 81.390625 79.21875 C 78.328125 78.097656 73.617188 78.398438 71.152344 77.054688 C 69.433594 76.082031 68.835938 74.886719 67.488281 73.089844 C 65.171875 69.804688 62.558594 62.328125 59.566406 58.515625 C 57.101562 55.453125 54.484375 52.015625 51.496094 51.417969 C 48.582031 50.820312 44.542969 53.511719 41.703125 54.78125 C 39.238281 55.828125 37.445312 56.796875 35.054688 58.441406 C 31.839844 60.683594 24.8125 65.394531 24.214844 67.636719 C 23.992188 68.605469 25.1875 69.355469 25.1875 70.101562 C 25.261719 70.773438 25.039062 71.597656 24.589844 71.96875 C 24.214844 72.34375 23.320312 72.644531 22.722656 72.492188 C 22.199219 72.417969 21.226562 71.296875 21.226562 71.296875 "/></clipPath><clipPath id="30fddc7b4f"><path d="M 0.765625 0.5625 L 73 0.5625 L 73 36.597656 L 0.765625 36.597656 Z M 0.765625 0.5625 "/></clipPath><clipPath id="aa9acf8a4d"><path d="M 2.226562 24.296875 C 0.730469 18.765625 0.582031 17.945312 1.253906 16.898438 C 2.75 14.507812 10.222656 10.320312 13.8125 8.078125 C 16.425781 6.433594 18.445312 5.464844 20.835938 4.34375 C 23.152344 3.296875 25.695312 2.101562 27.863281 1.503906 C 29.507812 0.980469 31.226562 0.457031 32.496094 0.605469 C 33.46875 0.679688 33.914062 0.980469 34.886719 1.503906 C 36.90625 2.699219 41.390625 6.359375 43.480469 8.527344 C 44.902344 10.097656 45.5 10.996094 46.695312 12.863281 C 48.640625 16 50.507812 23.476562 53.648438 25.792969 C 56.113281 27.585938 59.699219 26.390625 62.464844 27.4375 C 65.082031 28.410156 68.070312 31.25 69.867188 31.773438 C 70.6875 32.070312 71.359375 31.695312 71.808594 31.921875 C 72.332031 32.144531 72.707031 32.667969 72.855469 33.117188 C 73.003906 33.789062 72.929688 34.910156 72.554688 35.433594 C 72.183594 36.03125 71.210938 36.554688 70.539062 36.480469 C 69.714844 36.40625 68.445312 35.433594 68.144531 34.6875 C 67.921875 34.015625 68.222656 32.894531 68.667969 32.445312 C 69.117188 31.921875 70.164062 31.472656 70.835938 31.546875 C 71.507812 31.695312 72.40625 32.296875 72.78125 32.894531 C 73.078125 33.492188 73.078125 34.613281 72.707031 35.210938 C 72.257812 35.882812 71.136719 36.480469 70.015625 36.40625 C 68.070312 36.332031 65.15625 33.265625 62.390625 32.21875 C 59.328125 31.097656 54.617188 31.398438 52.152344 30.054688 C 50.433594 29.082031 49.835938 27.886719 48.488281 26.089844 C 46.171875 22.804688 43.558594 15.328125 40.566406 11.515625 C 38.101562 8.453125 35.484375 5.015625 32.496094 4.417969 C 29.582031 3.820312 25.542969 6.511719 22.703125 7.78125 C 20.238281 8.828125 18.445312 9.796875 16.054688 11.441406 C 12.839844 13.683594 5.8125 18.394531 5.214844 20.636719 C 4.992188 21.605469 6.1875 22.355469 6.1875 23.101562 C 6.261719 23.773438 6.039062 24.597656 5.589844 24.96875 C 5.214844 25.34375 4.320312 25.644531 3.722656 25.492188 C 3.199219 25.417969 2.226562 24.296875 2.226562 24.296875 "/></clipPath><clipPath id="cb5a4cf9d2"><rect x="0" width="73" y="0" height="37"/></clipPath><clipPath id="84966941b6"><path d="M 36.960938 65.207031 L 51.992188 65.207031 L 51.992188 75.742188 L 36.960938 75.742188 Z M 36.960938 65.207031 "/></clipPath><clipPath id="ab440d9e44"><path d="M 37.742188 71.820312 C 42.152344 68.457031 47.386719 65.167969 49.476562 65.242188 C 50.523438 65.242188 51.570312 65.84375 51.871094 66.515625 C 52.167969 67.1875 51.71875 68.683594 51.269531 69.207031 C 50.972656 69.578125 50.375 69.726562 49.925781 69.726562 C 49.328125 69.652344 48.355469 69.28125 47.984375 68.832031 C 47.609375 68.308594 47.460938 67.335938 47.683594 66.738281 C 47.90625 66.140625 48.582031 65.394531 49.253906 65.320312 C 49.925781 65.167969 51.347656 65.691406 51.71875 66.289062 C 52.09375 66.886719 52.019531 68.160156 51.421875 68.980469 C 50.300781 70.550781 44.992188 71.820312 42.976562 73.167969 C 41.78125 73.914062 41.105469 75.109375 40.285156 75.484375 C 39.6875 75.707031 39.164062 75.78125 38.714844 75.707031 C 38.191406 75.558594 37.667969 75.183594 37.371094 74.734375 C 37.070312 74.363281 36.921875 73.691406 36.996094 73.167969 C 37.070312 72.71875 37.742188 71.820312 37.742188 71.820312 "/></clipPath><clipPath id="87611f0cb1"><path d="M 0.960938 0.207031 L 15.992188 0.207031 L 15.992188 10.742188 L 0.960938 10.742188 Z M 0.960938 0.207031 "/></clipPath><clipPath id="c6e70988e2"><path d="M 1.742188 6.820312 C 6.152344 3.457031 11.386719 0.167969 13.476562 0.242188 C 14.523438 0.242188 15.570312 0.84375 15.871094 1.515625 C 16.167969 2.1875 15.71875 3.683594 15.269531 4.207031 C 14.972656 4.578125 14.375 4.726562 13.925781 4.726562 C 13.328125 4.652344 12.355469 4.28125 11.984375 3.832031 C 11.609375 3.308594 11.460938 2.335938 11.683594 1.738281 C 11.90625 1.140625 12.582031 0.394531 13.253906 0.320312 C 13.925781 0.167969 15.347656 0.691406 15.71875 1.289062 C 16.09375 1.886719 16.019531 3.160156 15.421875 3.980469 C 14.300781 5.550781 8.992188 6.820312 6.976562 8.167969 C 5.78125 8.914062 5.105469 10.109375 4.285156 10.484375 C 3.6875 10.707031 3.164062 10.78125 2.714844 10.707031 C 2.191406 10.558594 1.667969 10.183594 1.371094 9.734375 C 1.070312 9.363281 0.921875 8.691406 0.996094 8.167969 C 1.070312 7.71875 1.742188 6.820312 1.742188 6.820312 "/></clipPath><clipPath id="8fc2637959"><rect x="0" width="16" y="0" height="11"/></clipPath><clipPath id="9e5f923759"><path d="M 39.691406 69.675781 L 44.789062 69.675781 L 44.789062 78.296875 L 39.691406 78.296875 Z M 39.691406 69.675781 "/></clipPath><clipPath id="3be0b7ad63"><path d="M 44.542969 71.96875 C 44.097656 77.351562 43.273438 78.175781 42.527344 78.25 C 41.855469 78.324219 40.734375 77.800781 40.285156 77.054688 C 39.613281 76.007812 39.539062 73.242188 39.984375 71.96875 C 40.285156 71 40.957031 70.027344 41.628906 69.804688 C 42.226562 69.578125 43.273438 69.804688 43.722656 70.25 C 44.246094 70.625 44.695312 71.597656 44.542969 72.195312 C 44.394531 72.941406 43.347656 74.136719 42.601562 74.210938 C 41.929688 74.363281 40.507812 73.613281 40.210938 72.941406 C 39.835938 72.417969 39.910156 71.296875 40.285156 70.773438 C 40.734375 70.175781 42.152344 69.652344 42.902344 69.804688 C 43.5 69.878906 44.097656 70.476562 44.46875 71.222656 C 44.917969 72.417969 44.84375 75.410156 44.46875 76.53125 C 44.246094 77.128906 43.945312 77.574219 43.574219 77.875 C 43.125 78.097656 42.527344 78.398438 42.003906 78.25 C 41.332031 78.097656 40.433594 77.351562 40.058594 76.53125 C 39.539062 75.257812 39.761719 71.96875 40.285156 70.925781 C 40.507812 70.328125 40.957031 70.027344 41.480469 69.878906 C 41.929688 69.652344 42.601562 69.578125 43.050781 69.878906 C 43.648438 70.175781 44.542969 71.96875 44.542969 71.96875 "/></clipPath><clipPath id="ed110bb69d"><path d="M 0.691406 0.675781 L 5.789062 0.675781 L 5.789062 9.296875 L 0.691406 9.296875 Z M 0.691406 0.675781 "/></clipPath><clipPath id="10a4406271"><path d="M 5.542969 2.96875 C 5.097656 8.351562 4.273438 9.175781 3.527344 9.25 C 2.855469 9.324219 1.734375 8.800781 1.285156 8.054688 C 0.613281 7.007812 0.539062 4.242188 0.984375 2.96875 C 1.285156 2 1.957031 1.027344 2.628906 0.804688 C 3.226562 0.578125 4.273438 0.804688 4.722656 1.25 C 5.246094 1.625 5.695312 2.597656 5.542969 3.195312 C 5.394531 3.941406 4.347656 5.136719 3.601562 5.210938 C 2.929688 5.363281 1.507812 4.613281 1.210938 3.941406 C 0.835938 3.417969 0.910156 2.296875 1.285156 1.773438 C 1.734375 1.175781 3.152344 0.652344 3.902344 0.804688 C 4.5 0.878906 5.097656 1.476562 5.46875 2.222656 C 5.917969 3.417969 5.84375 6.410156 5.46875 7.53125 C 5.246094 8.128906 4.945312 8.574219 4.574219 8.875 C 4.125 9.097656 3.527344 9.398438 3.003906 9.25 C 2.332031 9.097656 1.433594 8.351562 1.058594 7.53125 C 0.539062 6.257812 0.761719 2.96875 1.285156 1.925781 C 1.507812 1.328125 1.957031 1.027344 2.480469 0.878906 C 2.929688 0.652344 3.601562 0.578125 4.050781 0.878906 C 4.648438 1.175781 5.542969 2.96875 5.542969 2.96875 "/></clipPath><clipPath id="c0e5a2e916"><rect x="0" width="6" y="0" height="10"/></clipPath><clipPath id="91992ced88"><path d="M 46.132812 3.078125 L 102.25 3.078125 L 102.25 50 L 46.132812 50 Z M 46.132812 3.078125 "/></clipPath><clipPath id="ff34a298dc"><path d="M 46.265625 47.15625 C 54.710938 26.304688 56.277344 24.808594 58.671875 22.492188 C 61.660156 19.652344 65.921875 16.140625 69.730469 13.824219 C 73.171875 11.65625 76.382812 10.234375 80.34375 8.589844 C 85.054688 6.648438 92.601562 3.507812 96.265625 3.210938 C 98.207031 3.136719 99.703125 3.210938 100.675781 4.03125 C 101.570312 4.78125 101.71875 6.347656 101.871094 7.917969 C 102.167969 10.234375 102.167969 13.300781 101.347656 16.4375 C 100.152344 20.699219 95.964844 28.695312 94.171875 30.863281 C 93.425781 31.609375 92.976562 31.984375 92.304688 32.058594 C 91.628906 32.132812 90.660156 31.761719 90.285156 31.238281 C 89.835938 30.714844 89.613281 29.742188 89.761719 29.070312 C 89.988281 28.472656 90.734375 27.726562 91.332031 27.5 C 91.78125 27.277344 92.378906 27.351562 92.828125 27.5 C 93.273438 27.648438 93.796875 27.949219 94.023438 28.398438 C 94.320312 28.921875 94.394531 30.042969 94.246094 30.640625 C 94.097656 31.089844 93.722656 31.535156 93.273438 31.761719 C 92.75 31.984375 91.628906 32.210938 91.03125 31.835938 C 90.433594 31.460938 89.761719 30.566406 89.761719 29.367188 C 89.6875 26.304688 96.339844 17.785156 97.160156 13.449219 C 97.757812 10.683594 96.039062 7.023438 96.9375 6.347656 C 97.460938 5.902344 99.851562 6.796875 99.851562 7.246094 C 99.851562 8.367188 85.800781 11.507812 80.417969 13.75 C 76.457031 15.394531 73.46875 16.738281 70.253906 18.679688 C 67.191406 20.625 64.125 23.089844 61.734375 25.40625 C 59.71875 27.277344 58.296875 28.546875 56.726562 31.164062 C 54.1875 35.421875 52.242188 47.605469 49.777344 49.398438 C 48.878906 50.070312 47.535156 49.921875 46.9375 49.472656 C 46.414062 49.101562 46.265625 47.15625 46.265625 47.15625 "/></clipPath><clipPath id="928b9655e7"><path d="M 0.160156 0.0898438 L 56.25 0.0898438 L 56.25 47 L 0.160156 47 Z M 0.160156 0.0898438 "/></clipPath><clipPath id="80d58913bb"><path d="M 0.265625 44.15625 C 8.710938 23.304688 10.277344 21.808594 12.671875 19.492188 C 15.660156 16.652344 19.921875 13.140625 23.730469 10.824219 C 27.171875 8.65625 30.382812 7.234375 34.34375 5.589844 C 39.054688 3.648438 46.601562 0.507812 50.265625 0.210938 C 52.207031 0.136719 53.703125 0.210938 54.675781 1.03125 C 55.570312 1.78125 55.71875 3.347656 55.871094 4.917969 C 56.167969 7.234375 56.167969 10.300781 55.347656 13.4375 C 54.152344 17.699219 49.964844 25.695312 48.171875 27.863281 C 47.425781 28.609375 46.976562 28.984375 46.304688 29.058594 C 45.628906 29.132812 44.660156 28.761719 44.285156 28.238281 C 43.835938 27.714844 43.613281 26.742188 43.761719 26.070312 C 43.988281 25.472656 44.734375 24.726562 45.332031 24.5 C 45.78125 24.277344 46.378906 24.351562 46.828125 24.5 C 47.273438 24.648438 47.796875 24.949219 48.023438 25.398438 C 48.320312 25.921875 48.394531 27.042969 48.246094 27.640625 C 48.097656 28.089844 47.722656 28.535156 47.273438 28.761719 C 46.75 28.984375 45.628906 29.210938 45.03125 28.835938 C 44.433594 28.460938 43.761719 27.566406 43.761719 26.367188 C 43.6875 23.304688 50.339844 14.785156 51.160156 10.449219 C 51.757812 7.683594 50.039062 4.023438 50.9375 3.347656 C 51.460938 2.902344 53.851562 3.796875 53.851562 4.246094 C 53.851562 5.367188 39.800781 8.507812 34.417969 10.75 C 30.457031 12.394531 27.46875 13.738281 24.253906 15.679688 C 21.191406 17.625 18.125 20.089844 15.734375 22.40625 C 13.71875 24.277344 12.296875 25.546875 10.726562 28.164062 C 8.1875 32.421875 6.242188 44.605469 3.777344 46.398438 C 2.878906 47.070312 1.535156 46.921875 0.9375 46.472656 C 0.414062 46.101562 0.265625 44.15625 0.265625 44.15625 "/></clipPath><clipPath id="a7e7c21f71"><rect x="0" width="57" y="0" height="47"/></clipPath><clipPath id="a32776e25c"><path d="M 89.648438 29.035156 L 94.339844 29.035156 L 94.339844 35.5 L 89.648438 35.5 Z M 89.648438 29.035156 "/></clipPath><clipPath id="3b0e90d932"><path d="M 94.320312 31.238281 C 93.871094 34.601562 93.273438 35.273438 92.675781 35.421875 C 91.929688 35.574219 90.585938 34.972656 90.136719 34.375 C 89.761719 33.929688 89.761719 32.882812 89.988281 32.285156 C 90.285156 31.761719 91.109375 31.164062 91.707031 31.011719 C 92.304688 30.9375 93.273438 31.238281 93.722656 31.6875 C 94.097656 32.132812 94.394531 33.105469 94.246094 33.703125 C 94.097656 34.375 93.5 35.125 92.902344 35.347656 C 92.304688 35.574219 91.332031 35.496094 90.808594 35.125 C 90.285156 34.75 89.988281 33.929688 89.835938 33.253906 C 89.613281 32.507812 89.613281 31.386719 89.910156 30.714844 C 90.136719 30.042969 90.660156 29.367188 91.257812 29.144531 C 91.855469 28.921875 92.828125 29.070312 93.351562 29.367188 C 93.871094 29.742188 94.320312 31.238281 94.320312 31.238281 "/></clipPath><clipPath id="b1a4f17807"><path d="M 0.648438 0.0351562 L 5.339844 0.0351562 L 5.339844 6.5 L 0.648438 6.5 Z M 0.648438 0.0351562 "/></clipPath><clipPath id="fcc327446b"><path d="M 5.320312 2.238281 C 4.871094 5.601562 4.273438 6.273438 3.675781 6.421875 C 2.929688 6.574219 1.585938 5.972656 1.136719 5.375 C 0.761719 4.929688 0.761719 3.882812 0.988281 3.285156 C 1.285156 2.761719 2.109375 2.164062 2.707031 2.011719 C 3.304688 1.9375 4.273438 2.238281 4.722656 2.6875 C 5.097656 3.132812 5.394531 4.105469 5.246094 4.703125 C 5.097656 5.375 4.5 6.125 3.902344 6.347656 C 3.304688 6.574219 2.332031 6.496094 1.808594 6.125 C 1.285156 5.75 0.988281 4.929688 0.835938 4.253906 C 0.613281 3.507812 0.613281 2.386719 0.910156 1.714844 C 1.136719 1.042969 1.660156 0.367188 2.257812 0.144531 C 2.855469 -0.078125 3.828125 0.0703125 4.351562 0.367188 C 4.871094 0.742188 5.320312 2.238281 5.320312 2.238281 "/></clipPath><clipPath id="a9881ed425"><rect x="0" width="6" y="0" height="7"/></clipPath><clipPath id="3d6f500e57"><path d="M 88.839844 32.265625 L 105.832031 32.265625 L 105.832031 45.90625 L 88.839844 45.90625 Z M 88.839844 32.265625 "/></clipPath><clipPath id="96e76ea2da"><path d="M 92.078125 32.285156 C 104.484375 40.355469 105.832031 42.746094 105.757812 44.019531 C 105.683594 44.765625 105.160156 45.4375 104.636719 45.664062 C 104.113281 45.960938 103.140625 45.960938 102.617188 45.738281 C 102.09375 45.4375 101.644531 44.617188 101.496094 44.019531 C 101.421875 43.570312 101.496094 43.121094 101.796875 42.746094 C 102.09375 42.300781 102.992188 41.777344 103.515625 41.699219 C 103.960938 41.625 104.484375 41.777344 104.859375 42.074219 C 105.160156 42.300781 105.53125 42.671875 105.683594 43.121094 C 105.757812 43.644531 105.757812 44.691406 105.308594 45.0625 C 104.859375 45.585938 103.441406 45.960938 102.839844 45.8125 C 102.394531 45.664062 102.019531 45.363281 101.796875 44.914062 C 101.496094 44.390625 101.796875 43.421875 101.421875 42.746094 C 100.972656 42 100.226562 41.402344 99.105469 40.65625 C 97.011719 39.160156 90.285156 37.214844 89.238281 35.496094 C 88.714844 34.675781 88.789062 33.554688 89.238281 33.03125 C 89.6875 32.433594 92.078125 32.285156 92.078125 32.285156 "/></clipPath><clipPath id="8dd760c699"><path d="M 0.839844 0.269531 L 17.832031 0.269531 L 17.832031 13.90625 L 0.839844 13.90625 Z M 0.839844 0.269531 "/></clipPath><clipPath id="d09a6ddd14"><path d="M 4.078125 0.285156 C 16.484375 8.355469 17.832031 10.746094 17.757812 12.019531 C 17.683594 12.765625 17.160156 13.4375 16.636719 13.664062 C 16.113281 13.960938 15.140625 13.960938 14.617188 13.738281 C 14.09375 13.4375 13.644531 12.617188 13.496094 12.019531 C 13.421875 11.570312 13.496094 11.121094 13.796875 10.746094 C 14.09375 10.300781 14.992188 9.777344 15.515625 9.699219 C 15.960938 9.625 16.484375 9.777344 16.859375 10.074219 C 17.160156 10.300781 17.53125 10.671875 17.683594 11.121094 C 17.757812 11.644531 17.757812 12.691406 17.308594 13.0625 C 16.859375 13.585938 15.441406 13.960938 14.839844 13.8125 C 14.394531 13.664062 14.019531 13.363281 13.796875 12.914062 C 13.496094 12.390625 13.796875 11.421875 13.421875 10.746094 C 12.972656 10 12.226562 9.402344 11.105469 8.65625 C 9.011719 7.160156 2.285156 5.214844 1.238281 3.496094 C 0.714844 2.675781 0.789062 1.554688 1.238281 1.03125 C 1.6875 0.433594 4.078125 0.285156 4.078125 0.285156 "/></clipPath><clipPath id="8f3813478b"><rect x="0" width="18" y="0" height="14"/></clipPath><clipPath id="6c98f648c4"><path d="M 92.855469 43.601562 L 105.804688 43.601562 L 105.804688 66.261719 L 92.855469 66.261719 Z M 92.855469 43.601562 "/></clipPath><clipPath id="bd00cd19b8"><path d="M 105.757812 46.410156 C 101.570312 55.902344 98.058594 57.171875 97.910156 58.890625 C 97.757812 60.3125 100.449219 62.179688 100.75 63.300781 C 100.898438 63.824219 100.972656 64.273438 100.75 64.722656 C 100.375 65.320312 99.105469 66.140625 98.433594 66.214844 C 97.910156 66.214844 97.460938 65.992188 97.085938 65.617188 C 96.714844 65.167969 96.265625 64.273438 96.339844 63.601562 C 96.414062 63 97.011719 62.179688 97.609375 61.878906 C 98.132812 61.65625 99.179688 61.65625 99.703125 61.957031 C 100.226562 62.253906 100.824219 63.152344 100.824219 63.75 C 100.898438 64.347656 100.523438 65.320312 100 65.691406 C 99.554688 66.066406 98.65625 66.363281 97.910156 66.066406 C 96.789062 65.691406 95.292969 63.523438 94.394531 62.253906 C 93.722656 61.207031 92.75 60.386719 92.902344 59.191406 C 93.199219 57.097656 97.757812 53.957031 99.328125 51.269531 C 100.675781 48.949219 100.824219 45.363281 102.019531 44.316406 C 102.691406 43.71875 103.8125 43.496094 104.484375 43.792969 C 105.160156 44.09375 105.757812 46.410156 105.757812 46.410156 "/></clipPath><clipPath id="34b749af23"><path d="M 0.855469 0.601562 L 13.804688 0.601562 L 13.804688 23.261719 L 0.855469 23.261719 Z M 0.855469 0.601562 "/></clipPath><clipPath id="0be9d4f78e"><path d="M 13.757812 3.410156 C 9.570312 12.902344 6.058594 14.171875 5.910156 15.890625 C 5.757812 17.3125 8.449219 19.179688 8.75 20.300781 C 8.898438 20.824219 8.972656 21.273438 8.75 21.722656 C 8.375 22.320312 7.105469 23.140625 6.433594 23.214844 C 5.910156 23.214844 5.460938 22.992188 5.085938 22.617188 C 4.714844 22.167969 4.265625 21.273438 4.339844 20.601562 C 4.414062 20 5.011719 19.179688 5.609375 18.878906 C 6.132812 18.65625 7.179688 18.65625 7.703125 18.957031 C 8.226562 19.253906 8.824219 20.152344 8.824219 20.75 C 8.898438 21.347656 8.523438 22.320312 8 22.691406 C 7.554688 23.066406 6.65625 23.363281 5.910156 23.066406 C 4.789062 22.691406 3.292969 20.523438 2.394531 19.253906 C 1.722656 18.207031 0.75 17.386719 0.902344 16.191406 C 1.199219 14.097656 5.757812 10.957031 7.328125 8.269531 C 8.675781 5.949219 8.824219 2.363281 10.019531 1.316406 C 10.691406 0.71875 11.8125 0.496094 12.484375 0.792969 C 13.160156 1.09375 13.757812 3.410156 13.757812 3.410156 "/></clipPath><clipPath id="9305a55c6e"><rect x="0" width="14" y="0" height="24"/></clipPath></defs><g id="732d9ebf01"><g clip-rule="nonzero" clip-path="url(#0c2ec7c339)"><g clip-rule="nonzero" clip-path="url(#e0cd7cb564)"><g transform="matrix(1,0,0,1,2,69)"><g clip-path="url(#04fc718669)"><g clip-rule="nonzero" clip-path="url(#5d96c7b6e1)"><g clip-rule="nonzero" clip-path="url(#f480177340)"><rect x="0" width="110" height="95" y="0" style="fill:#ffffff;fill-opacity:1;stroke:none;"/></g></g></g></g></g></g><g clip-rule="nonzero" clip-path="url(#5834f0f7f5)"><g clip-rule="nonzero" clip-path="url(#7588ad7226)"><g transform="matrix(1,0,0,1,83,144)"><g clip-path="url(#54237a8bc9)"><g clip-rule="nonzero" clip-path="url(#42c532b07f)"><g clip-rule="nonzero" clip-path="url(#a5745f4e3b)"><rect x="0" width="8" height="38" y="0" style="fill:#ffffff;fill-opacity:1;stroke:none;"/></g></g></g></g></g></g><g clip-rule="nonzero" clip-path="url(#817b8afa87)"><g clip-rule="nonzero" clip-path="url(#1fe69435eb)"><g transform="matrix(1,0,0,1,73,177)"><g clip-path="url(#02958ce6a1)"><g clip-rule="nonzero" clip-path="url(#18fd28e42c)"><g clip-rule="nonzero" clip-path="url(#b58f366cff)"><rect x="0" width="18" height="19" y="0" style="fill:#ffffff;fill-opacity:1;stroke:none;"/></g></g></g></g></g></g><g clip-rule="nonzero" clip-path="url(#5fe5b5f571)"><g clip-rule="nonzero" clip-path="url(#18a147dbc2)"><g transform="matrix(1,0,0,1,85,179)"><g clip-path="url(#32b926ec58)"><g clip-rule="nonzero" clip-path="url(#8aae38322a)"><g clip-rule="nonzero" clip-path="url(#a2396e70eb)"><rect x="0" width="12" height="15" y="0" style="fill:#ffffff;fill-opacity:1;stroke:none;"/></g></g></g></g></g></g><g clip-rule="nonzero" clip-path="url(#3889da44ec)"><g clip-rule="nonzero" clip-path="url(#74ef98edad)"><g transform="matrix(1,0,0,1,22,151)"><g clip-path="url(#cf0a43be80)"><g clip-rule="nonzero" clip-path="url(#061e52f034)"><g clip-rule="nonzero" clip-path="url(#bab03f2b0f)"><rect x="0" width="34" height="13" y="0" style="fill:#ffffff;fill-opacity:1;stroke:none;"/></g></g></g></g></g></g><g clip-rule="nonzero" clip-path="url(#9ab12c6d34)"><g clip-rule="nonzero" clip-path="url(#7d493e7836)"><g transform="matrix(1,0,0,1,10,153)"><g clip-path="url(#250b766f9e)"><g clip-rule="nonzero" clip-path="url(#a73432fd27)"><g clip-rule="nonzero" clip-path="url(#42e4b58e42)"><rect x="0" width="17" height="11" y="0" style="fill:#ffffff;fill-opacity:1;stroke:none;"/></g></g></g></g></g></g><g clip-rule="nonzero" clip-path="url(#196fcca37f)"><g clip-rule="nonzero" clip-path="url(#55c1b53518)"><g transform="matrix(1,0,0,1,9,161)"><g clip-path="url(#280e773259)"><g clip-rule="nonzero" clip-path="url(#5492670602)"><g clip-rule="nonzero" clip-path="url(#a6161294c6)"><rect x="0" width="23" height="11" y="0" style="fill:#ffffff;fill-opacity:1;stroke:none;"/></g></g></g></g></g></g><g clip-rule="nonzero" clip-path="url(#c440285d10)"><g clip-rule="nonzero" clip-path="url(#4a8fe57518)"><g transform="matrix(1,0,0,1,21,161)"><g clip-path="url(#7f92fde594)"><g clip-rule="nonzero" clip-path="url(#d1d7131813)"><g clip-rule="nonzero" clip-path="url(#100b734b79)"><rect x="0" width="8" height="18" y="0" style="fill:#ffffff;fill-opacity:1;stroke:none;"/></g></g></g></g></g></g><g clip-rule="nonzero" clip-path="url(#1b43c4d876)"><g clip-rule="nonzero" clip-path="url(#24297417a4)"><g transform="matrix(1,0,0,1,78,42)"><g clip-path="url(#d23d2753c9)"><g clip-rule="nonzero" clip-path="url(#3c3bfd05ff)"><g clip-rule="nonzero" clip-path="url(#b0acb971e3)"><rect x="0" width="42" height="55" y="0" style="fill:#ffffff;fill-opacity:1;stroke:none;"/></g></g></g></g></g></g><g clip-rule="nonzero" clip-path="url(#73bab28187)"><g clip-rule="nonzero" clip-path="url(#3b41903def)"><g transform="matrix(1,0,0,1,122,39)"><g clip-path="url(#e470791264)"><g clip-rule="nonzero" clip-path="url(#c3225a1a98)"><g clip-rule="nonzero" clip-path="url(#d34e4f3a21)"><rect x="0" width="52" height="7" y="0" style="fill:#ffffff;fill-opacity:1;stroke:none;"/></g></g></g></g></g></g><g clip-rule="nonzero" clip-path="url(#6fc5113a76)"><g clip-rule="nonzero" clip-path="url(#2c27afab81)"><g transform="matrix(1,0,0,1,113,45)"><g clip-path="url(#d1c2523fb0)"><g clip-rule="nonzero" clip-path="url(#52bc33ed91)"><g clip-rule="nonzero" clip-path="url(#a826f2d43b)"><rect x="0" width="60" height="66" y="0" style="fill:#ffffff;fill-opacity:1;stroke:none;"/></g></g></g></g></g></g><g clip-rule="nonzero" clip-path="url(#9a4ce4182b)"><g clip-rule="nonzero" clip-path="url(#ca69e766be)"><g transform="matrix(1,0,0,1,109,106)"><g clip-path="url(#c6d2d4a9d5)"><g clip-rule="nonzero" clip-path="url(#97f9aec76f)"><g clip-rule="nonzero" clip-path="url(#ecfd13e0fd)"><rect x="0" width="103" height="70" y="0" style="fill:#ffffff;fill-opacity:1;stroke:none;"/></g></g></g></g></g></g><g clip-rule="nonzero" clip-path="url(#7232b314fe)"><g clip-rule="nonzero" clip-path="url(#d4ff7e0da2)"><g transform="matrix(1,0,0,1,19,47)"><g clip-path="url(#cb5a4cf9d2)"><g clip-rule="nonzero" clip-path="url(#30fddc7b4f)"><g clip-rule="nonzero" clip-path="url(#aa9acf8a4d)"><rect x="0" width="73" height="37" y="0" style="fill:#ffffff;fill-opacity:1;stroke:none;"/></g></g></g></g></g></g><g clip-rule="nonzero" clip-path="url(#84966941b6)"><g clip-rule="nonzero" clip-path="url(#ab440d9e44)"><g transform="matrix(1,0,0,1,36,65)"><g clip-path="url(#8fc2637959)"><g clip-rule="nonzero" clip-path="url(#87611f0cb1)"><g clip-rule="nonzero" clip-path="url(#c6e70988e2)"><rect x="0" width="16" height="11" y="0" style="fill:#ffffff;fill-opacity:1;stroke:none;"/></g></g></g></g></g></g><g clip-rule="nonzero" clip-path="url(#9e5f923759)"><g clip-rule="nonzero" clip-path="url(#3be0b7ad63)"><g transform="matrix(1,0,0,1,39,69)"><g clip-path="url(#c0e5a2e916)"><g clip-rule="nonzero" clip-path="url(#ed110bb69d)"><g clip-rule="nonzero" clip-path="url(#10a4406271)"><rect x="0" width="6" height="10" y="0" style="fill:#ffffff;fill-opacity:1;stroke:none;"/></g></g></g></g></g></g><g clip-rule="nonzero" clip-path="url(#91992ced88)"><g clip-rule="nonzero" clip-path="url(#ff34a298dc)"><g transform="matrix(1,0,0,1,46,3)"><g clip-path="url(#a7e7c21f71)"><g clip-rule="nonzero" clip-path="url(#928b9655e7)"><g clip-rule="nonzero" clip-path="url(#80d58913bb)"><rect x="0" width="57" height="47" y="0" style="fill:#ffffff;fill-opacity:1;stroke:none;"/></g></g></g></g></g></g><g clip-rule="nonzero" clip-path="url(#a32776e25c)"><g clip-rule="nonzero" clip-path="url(#3b0e90d932)"><g transform="matrix(1,0,0,1,89,29)"><g clip-path="url(#a9881ed425)"><g clip-rule="nonzero" clip-path="url(#b1a4f17807)"><g clip-rule="nonzero" clip-path="url(#fcc327446b)"><rect x="0" width="6" height="7" y="0" style="fill:#ffffff;fill-opacity:1;stroke:none;"/></g></g></g></g></g></g><g clip-rule="nonzero" clip-path="url(#3d6f500e57)"><g clip-rule="nonzero" clip-path="url(#96e76ea2da)"><g transform="matrix(1,0,0,1,88,32)"><g clip-path="url(#8f3813478b)"><g clip-rule="nonzero" clip-path="url(#8dd760c699)"><g clip-rule="nonzero" clip-path="url(#d09a6ddd14)"><rect x="0" width="18" height="14" y="0" style="fill:#ffffff;fill-opacity:1;stroke:none;"/></g></g></g></g></g></g><g clip-rule="nonzero" clip-path="url(#6c98f648c4)"><g clip-rule="nonzero" clip-path="url(#bd00cd19b8)"><g transform="matrix(1,0,0,1,92,43)"><g clip-path="url(#9305a55c6e)"><g clip-rule="nonzero" clip-path="url(#34b749af23)"><g clip-rule="nonzero" clip-path="url(#0be9d4f78e)"><rect x="0" width="14" height="24" y="0" style="fill:#ffffff;fill-opacity:1;stroke:none;"/></g></g></g></g></g></g></g></svg>