<svg xmlns="http://www.w3.org/2000/svg" xmlns:xlink="http://www.w3.org/1999/xlink" width="287" zoomAndPan="magnify" viewBox="0 0 215.25 203.249992" height="271" preserveAspectRatio="xMidYMid meet" version="1.2"><defs><clipPath id="92e8cfcb13"><path d="M 84.355469 182.550781 L 90.019531 182.550781 L 90.019531 199.183594 L 84.355469 199.183594 Z M 84.355469 182.550781 "/></clipPath><clipPath id="3857c37b46"><path d="M 88.921875 184.367188 C 89.441406 198.5625 88.398438 199.164062 87.648438 199.164062 C 86.902344 199.085938 85.78125 198.117188 85.558594 197.367188 C 85.332031 196.769531 85.707031 195.800781 86.082031 195.351562 C 86.378906 194.976562 86.902344 194.679688 87.351562 194.679688 C 87.949219 194.605469 88.921875 194.902344 89.367188 195.351562 C 89.816406 195.800781 90.117188 196.769531 89.964844 197.367188 C 89.742188 198.042969 88.621094 199.085938 87.875 199.164062 C 87.203125 199.164062 86.230469 198.5625 85.632812 197.667969 C 84.363281 195.5 84.210938 186.90625 84.511719 184.742188 C 84.585938 183.992188 84.734375 183.621094 85.109375 183.320312 C 85.40625 182.945312 86.007812 182.648438 86.527344 182.574219 C 87.050781 182.5 87.648438 182.722656 88.097656 183.023438 C 88.472656 183.320312 88.921875 184.367188 88.921875 184.367188 "/></clipPath><clipPath id="d6c3003014"><path d="M 0.355469 0.550781 L 6.019531 0.550781 L 6.019531 17.183594 L 0.355469 17.183594 Z M 0.355469 0.550781 "/></clipPath><clipPath id="de12f0b5b7"><path d="M 4.921875 2.367188 C 5.441406 16.5625 4.398438 17.164062 3.648438 17.164062 C 2.902344 17.085938 1.78125 16.117188 1.558594 15.367188 C 1.332031 14.769531 1.707031 13.800781 2.082031 13.351562 C 2.378906 12.976562 2.902344 12.679688 3.351562 12.679688 C 3.949219 12.605469 4.921875 12.902344 5.367188 13.351562 C 5.816406 13.800781 6.117188 14.769531 5.964844 15.367188 C 5.742188 16.042969 4.621094 17.085938 3.875 17.164062 C 3.203125 17.164062 2.230469 16.5625 1.632812 15.667969 C 0.363281 13.5 0.210938 4.90625 0.511719 2.742188 C 0.585938 1.992188 0.734375 1.621094 1.109375 1.320312 C 1.40625 0.945312 2.007812 0.648438 2.527344 0.574219 C 3.050781 0.5 3.648438 0.722656 4.097656 1.023438 C 4.472656 1.320312 4.921875 2.367188 4.921875 2.367188 "/></clipPath><clipPath id="0cd906a396"><rect x="0" width="7" y="0" height="18"/></clipPath><clipPath id="bf7c96871b"><path d="M 2.746094 69 L 111.691406 69 L 111.691406 162.941406 L 2.746094 162.941406 Z M 2.746094 69 "/></clipPath><clipPath id="046dad16a9"><path d="M 24.980469 73.304688 C 10.632812 79.433594 7.121094 84.585938 7.121094 84.585938 C 7.121094 84.585938 7.792969 83.316406 8.691406 82.871094 C 10.78125 81.972656 17.957031 82.421875 21.320312 82.792969 C 23.636719 83.09375 26.027344 83.316406 27.070312 84.289062 C 27.820312 84.886719 28.042969 85.785156 28.117188 86.679688 C 28.191406 87.726562 27.894531 88.847656 27.148438 90.042969 C 25.953125 91.984375 22.289062 94.972656 20.199219 96.246094 C 18.851562 96.992188 17.359375 97.890625 16.460938 97.589844 C 15.640625 97.289062 14.59375 95.496094 14.816406 95.199219 C 15.191406 94.675781 18.328125 96.09375 20.496094 96.320312 C 23.484375 96.691406 28.640625 96.171875 31.332031 96.394531 C 32.902344 96.46875 34.097656 96.394531 35.140625 96.917969 C 36.039062 97.367188 36.636719 98.113281 37.160156 99.085938 C 37.832031 100.429688 38.058594 102.074219 38.355469 104.539062 C 38.953125 109.84375 37.308594 122.996094 38.878906 129.421875 C 40 133.832031 42.464844 137.566406 44.183594 139.957031 C 45.230469 141.527344 46.203125 142.425781 47.324219 143.246094 C 48.367188 143.992188 48.964844 144.144531 50.683594 144.890625 C 55.765625 147.132812 75.195312 155.054688 81.695312 156.847656 C 84.609375 157.59375 85.730469 157.59375 88.195312 157.816406 C 91.335938 158.042969 95.59375 158.265625 99.179688 157.890625 C 102.691406 157.445312 107.550781 154.679688 109.566406 155.277344 C 110.613281 155.652344 111.4375 156.773438 111.585938 157.445312 C 111.734375 157.96875 111.585938 158.566406 111.285156 159.011719 C 110.914062 159.535156 109.941406 160.132812 109.269531 160.207031 C 108.746094 160.285156 108.222656 160.132812 107.773438 159.761719 C 107.25 159.386719 106.726562 158.414062 106.726562 157.742188 C 106.726562 157.070312 107.25 156.097656 107.773438 155.726562 C 108.371094 155.351562 109.492188 155.277344 110.089844 155.425781 C 110.613281 155.574219 111.0625 156.023438 111.285156 156.472656 C 111.585938 157.070312 111.734375 158.117188 111.4375 158.789062 C 110.914062 159.761719 109.195312 160.582031 107.625 161.253906 C 105.457031 162.078125 101.945312 162.449219 99.179688 162.675781 C 96.566406 162.824219 94.472656 162.824219 91.632812 162.601562 C 87.972656 162.226562 84.085938 161.851562 79.003906 160.433594 C 70.636719 158.191406 53.226562 151.839844 46.726562 148.101562 C 43.585938 146.234375 42.015625 144.890625 40.296875 142.796875 C 38.503906 140.632812 37.160156 137.941406 36.039062 135.398438 C 34.917969 133.007812 34.023438 131.289062 33.5 128.078125 C 32.601562 122.398438 35.367188 106.929688 33.722656 103.417969 C 33.125 102.148438 32.527344 101.925781 31.332031 101.476562 C 28.640625 100.429688 19.972656 101.175781 17.058594 100.652344 C 15.714844 100.355469 15.117188 100.207031 14.144531 99.683594 C 13.023438 99.007812 11.007812 97.890625 10.707031 96.84375 C 10.484375 95.945312 11.082031 94.601562 11.828125 93.929688 C 12.800781 93.03125 15.042969 93.332031 16.535156 92.582031 C 18.179688 91.761719 19.898438 89.667969 21.394531 88.921875 C 22.515625 88.398438 24.457031 88.398438 24.457031 88.175781 C 24.382812 87.578125 8.242188 88.847656 5.179688 87.277344 C 3.832031 86.605469 3.085938 85.632812 3.011719 84.511719 C 2.785156 83.09375 4.132812 80.851562 5.402344 79.207031 C 6.972656 77.117188 9.585938 75.097656 12.425781 73.453125 C 15.640625 71.585938 21.839844 69.195312 23.859375 69.046875 C 24.605469 68.96875 24.980469 69.121094 25.429688 69.417969 C 25.800781 69.644531 26.175781 70.242188 26.324219 70.6875 C 26.472656 71.136719 26.398438 71.808594 26.175781 72.257812 C 25.953125 72.707031 24.980469 73.304688 24.980469 73.304688 "/></clipPath><clipPath id="907aa07657"><path d="M 0.746094 0 L 109.691406 0 L 109.691406 93.839844 L 0.746094 93.839844 Z M 0.746094 0 "/></clipPath><clipPath id="4b7c4494d8"><path d="M 22.980469 4.304688 C 8.632812 10.433594 5.121094 15.585938 5.121094 15.585938 C 5.121094 15.585938 5.792969 14.316406 6.691406 13.871094 C 8.78125 12.972656 15.957031 13.421875 19.320312 13.792969 C 21.636719 14.09375 24.027344 14.316406 25.070312 15.289062 C 25.820312 15.886719 26.042969 16.785156 26.117188 17.679688 C 26.191406 18.726562 25.894531 19.847656 25.148438 21.042969 C 23.953125 22.984375 20.289062 25.972656 18.199219 27.246094 C 16.851562 27.992188 15.359375 28.890625 14.460938 28.589844 C 13.640625 28.289062 12.59375 26.496094 12.816406 26.199219 C 13.191406 25.675781 16.328125 27.09375 18.496094 27.320312 C 21.484375 27.691406 26.640625 27.171875 29.332031 27.394531 C 30.902344 27.46875 32.097656 27.394531 33.140625 27.917969 C 34.039062 28.367188 34.636719 29.113281 35.160156 30.085938 C 35.832031 31.429688 36.058594 33.074219 36.355469 35.539062 C 36.953125 40.84375 35.308594 53.996094 36.878906 60.421875 C 38 64.832031 40.464844 68.566406 42.183594 70.957031 C 43.230469 72.527344 44.203125 73.425781 45.324219 74.246094 C 46.367188 74.992188 46.964844 75.144531 48.683594 75.890625 C 53.765625 78.132812 73.195312 86.054688 79.695312 87.847656 C 82.609375 88.59375 83.730469 88.59375 86.195312 88.816406 C 89.335938 89.042969 93.59375 89.265625 97.179688 88.890625 C 100.691406 88.445312 105.550781 85.679688 107.566406 86.277344 C 108.613281 86.652344 109.4375 87.773438 109.585938 88.445312 C 109.734375 88.96875 109.585938 89.566406 109.285156 90.011719 C 108.914062 90.535156 107.941406 91.132812 107.269531 91.207031 C 106.746094 91.285156 106.222656 91.132812 105.773438 90.761719 C 105.25 90.386719 104.726562 89.414062 104.726562 88.742188 C 104.726562 88.070312 105.25 87.097656 105.773438 86.726562 C 106.371094 86.351562 107.492188 86.277344 108.089844 86.425781 C 108.613281 86.574219 109.0625 87.023438 109.285156 87.472656 C 109.585938 88.070312 109.734375 89.117188 109.4375 89.789062 C 108.914062 90.761719 107.195312 91.582031 105.625 92.253906 C 103.457031 93.078125 99.945312 93.449219 97.179688 93.675781 C 94.566406 93.824219 92.472656 93.824219 89.632812 93.601562 C 85.972656 93.226562 82.085938 92.851562 77.003906 91.433594 C 68.636719 89.191406 51.226562 82.839844 44.726562 79.101562 C 41.585938 77.234375 40.015625 75.890625 38.296875 73.796875 C 36.503906 71.632812 35.160156 68.941406 34.039062 66.398438 C 32.917969 64.007812 32.023438 62.289062 31.5 59.078125 C 30.601562 53.398438 33.367188 37.929688 31.722656 34.417969 C 31.125 33.148438 30.527344 32.925781 29.332031 32.476562 C 26.640625 31.429688 17.972656 32.175781 15.058594 31.652344 C 13.714844 31.355469 13.117188 31.207031 12.144531 30.683594 C 11.023438 30.007812 9.007812 28.890625 8.707031 27.84375 C 8.484375 26.945312 9.082031 25.601562 9.828125 24.929688 C 10.800781 24.03125 13.042969 24.332031 14.535156 23.582031 C 16.179688 22.761719 17.898438 20.667969 19.394531 19.921875 C 20.515625 19.398438 22.457031 19.398438 22.457031 19.175781 C 22.382812 18.578125 6.242188 19.847656 3.179688 18.277344 C 1.832031 17.605469 1.085938 16.632812 1.011719 15.511719 C 0.785156 14.09375 2.132812 11.851562 3.402344 10.207031 C 4.972656 8.117188 7.585938 6.097656 10.425781 4.453125 C 13.640625 2.585938 19.839844 0.195312 21.859375 0.046875 C 22.605469 -0.03125 22.980469 0.121094 23.429688 0.417969 C 23.800781 0.644531 24.175781 1.242188 24.324219 1.6875 C 24.472656 2.136719 24.398438 2.808594 24.175781 3.257812 C 23.953125 3.707031 22.980469 4.304688 22.980469 4.304688 "/></clipPath><clipPath id="6fa0d2aadb"><rect x="0" width="110" y="0" height="94"/></clipPath><clipPath id="7cf401673c"><path d="M 83.535156 144.046875 L 90.28125 144.046875 L 90.28125 181.578125 L 83.535156 181.578125 Z M 83.535156 144.046875 "/></clipPath><clipPath id="1ee6e33aef"><path d="M 89.167969 146.460938 C 87.972656 157.890625 87.597656 165.214844 88.121094 169.996094 C 88.496094 173.660156 90.738281 177.84375 90.140625 179.710938 C 89.839844 180.683594 88.945312 181.355469 88.269531 181.503906 C 87.671875 181.65625 86.777344 181.207031 86.402344 180.757812 C 86.03125 180.308594 85.804688 179.339844 85.953125 178.816406 C 86.105469 178.21875 86.777344 177.542969 87.375 177.320312 C 87.898438 177.171875 88.871094 177.246094 89.316406 177.621094 C 89.839844 178.066406 90.289062 179.488281 90.066406 180.160156 C 89.765625 180.832031 88.496094 181.503906 87.824219 181.503906 C 87.226562 181.503906 86.628906 181.132812 86.105469 180.382812 C 85.058594 178.742188 84.3125 174.183594 83.9375 169.996094 C 83.414062 163.644531 83.265625 149.222656 84.910156 145.863281 C 85.507812 144.742188 86.402344 144.144531 87.074219 144.070312 C 87.597656 143.992188 88.121094 144.21875 88.496094 144.589844 C 88.871094 145.039062 89.167969 146.460938 89.167969 146.460938 "/></clipPath><clipPath id="c235dffdae"><path d="M 0.535156 0.046875 L 7.28125 0.046875 L 7.28125 37.578125 L 0.535156 37.578125 Z M 0.535156 0.046875 "/></clipPath><clipPath id="f6482d03c5"><path d="M 6.167969 2.460938 C 4.972656 13.890625 4.597656 21.214844 5.121094 25.996094 C 5.496094 29.660156 7.738281 33.84375 7.140625 35.710938 C 6.839844 36.683594 5.945312 37.355469 5.269531 37.503906 C 4.671875 37.65625 3.777344 37.207031 3.402344 36.757812 C 3.03125 36.308594 2.804688 35.339844 2.953125 34.816406 C 3.105469 34.21875 3.777344 33.542969 4.375 33.320312 C 4.898438 33.171875 5.871094 33.246094 6.316406 33.621094 C 6.839844 34.066406 7.289062 35.488281 7.066406 36.160156 C 6.765625 36.832031 5.496094 37.503906 4.824219 37.503906 C 4.226562 37.503906 3.628906 37.132812 3.105469 36.382812 C 2.058594 34.742188 1.3125 30.183594 0.9375 25.996094 C 0.414062 19.644531 0.265625 5.222656 1.910156 1.863281 C 2.507812 0.742188 3.402344 0.144531 4.074219 0.0703125 C 4.597656 -0.0078125 5.121094 0.21875 5.496094 0.589844 C 5.871094 1.039062 6.167969 2.460938 6.167969 2.460938 "/></clipPath><clipPath id="6a0d595b53"><rect x="0" width="8" y="0" height="38"/></clipPath><clipPath id="b9ad9073d7"><path d="M 73.230469 177.074219 L 90.3125 177.074219 L 90.3125 195.054688 L 73.230469 195.054688 Z M 73.230469 177.074219 "/></clipPath><clipPath id="317342df9e"><path d="M 89.765625 180.832031 C 75.71875 195.328125 75.046875 195.179688 74.449219 194.957031 C 74 194.804688 73.550781 194.433594 73.476562 193.984375 C 73.25 193.3125 73.550781 191.816406 73.925781 191.292969 C 74.296875 190.847656 74.820312 190.695312 75.269531 190.695312 C 75.867188 190.695312 76.839844 191.070312 77.210938 191.519531 C 77.660156 192.042969 77.734375 193.011719 77.660156 193.609375 C 77.511719 194.058594 77.210938 194.582031 76.765625 194.804688 C 76.167969 195.105469 74.671875 195.03125 74.074219 194.730469 C 73.625 194.433594 73.328125 193.984375 73.25 193.460938 C 73.175781 192.9375 73.328125 192.339844 73.773438 191.445312 C 75.269531 188.753906 84.386719 178.964844 86.703125 177.542969 C 87.375 177.097656 87.75 177.097656 88.269531 177.097656 C 88.792969 177.171875 89.390625 177.46875 89.691406 177.84375 C 90.066406 178.21875 90.289062 178.816406 90.289062 179.339844 C 90.289062 179.859375 89.765625 180.832031 89.765625 180.832031 "/></clipPath><clipPath id="b7cdc6887e"><path d="M 0.230469 0.0742188 L 17.3125 0.0742188 L 17.3125 18.054688 L 0.230469 18.054688 Z M 0.230469 0.0742188 "/></clipPath><clipPath id="564669bb70"><path d="M 16.765625 3.832031 C 2.71875 18.328125 2.046875 18.179688 1.449219 17.957031 C 1 17.804688 0.550781 17.433594 0.476562 16.984375 C 0.25 16.3125 0.550781 14.816406 0.925781 14.292969 C 1.296875 13.847656 1.820312 13.695312 2.269531 13.695312 C 2.867188 13.695312 3.839844 14.070312 4.210938 14.519531 C 4.660156 15.042969 4.734375 16.011719 4.660156 16.609375 C 4.511719 17.058594 4.210938 17.582031 3.765625 17.804688 C 3.167969 18.105469 1.671875 18.03125 1.074219 17.730469 C 0.625 17.433594 0.328125 16.984375 0.25 16.460938 C 0.175781 15.9375 0.328125 15.339844 0.773438 14.445312 C 2.269531 11.753906 11.386719 1.964844 13.703125 0.542969 C 14.375 0.0976562 14.75 0.0976562 15.269531 0.0976562 C 15.792969 0.171875 16.390625 0.46875 16.691406 0.84375 C 17.066406 1.21875 17.289062 1.816406 17.289062 2.339844 C 17.289062 2.859375 16.765625 3.832031 16.765625 3.832031 "/></clipPath><clipPath id="6ba691e3ff"><rect x="0" width="18" y="0" height="19"/></clipPath><clipPath id="7fda00d1b7"><path d="M 85.398438 178.84375 L 96.695312 178.84375 L 96.695312 193 L 85.398438 193 Z M 85.398438 178.84375 "/></clipPath><clipPath id="0f4b95a46c"><path d="M 89.46875 179.785156 C 93.652344 186.960938 95.820312 188.753906 96.339844 189.875 C 96.640625 190.398438 96.714844 190.695312 96.640625 191.144531 C 96.566406 191.667969 96.042969 192.488281 95.519531 192.789062 C 95.070312 193.011719 94.101562 193.085938 93.578125 192.789062 C 93.054688 192.414062 92.457031 191.144531 92.53125 190.472656 C 92.605469 189.875 93.277344 189.203125 93.800781 188.976562 C 94.472656 188.828125 95.820312 189.128906 96.265625 189.648438 C 96.640625 190.246094 96.492188 191.667969 96.191406 192.191406 C 96.042969 192.5625 95.59375 192.863281 95.144531 192.9375 C 94.621094 193.011719 93.949219 193.011719 93.203125 192.488281 C 91.335938 191.292969 86.402344 184.195312 85.65625 181.953125 C 85.355469 181.058594 85.355469 180.460938 85.582031 179.9375 C 85.730469 179.488281 86.179688 178.964844 86.703125 178.890625 C 87.375 178.742188 89.46875 179.785156 89.46875 179.785156 "/></clipPath><clipPath id="0795927312"><path d="M 0.398438 0.84375 L 11.695312 0.84375 L 11.695312 15 L 0.398438 15 Z M 0.398438 0.84375 "/></clipPath><clipPath id="add66289e3"><path d="M 4.46875 1.785156 C 8.652344 8.960938 10.820312 10.753906 11.339844 11.875 C 11.640625 12.398438 11.714844 12.695312 11.640625 13.144531 C 11.566406 13.667969 11.042969 14.488281 10.519531 14.789062 C 10.070312 15.011719 9.101562 15.085938 8.578125 14.789062 C 8.054688 14.414062 7.457031 13.144531 7.53125 12.472656 C 7.605469 11.875 8.277344 11.203125 8.800781 10.976562 C 9.472656 10.828125 10.820312 11.128906 11.265625 11.648438 C 11.640625 12.246094 11.492188 13.667969 11.191406 14.191406 C 11.042969 14.5625 10.59375 14.863281 10.144531 14.9375 C 9.621094 15.011719 8.949219 15.011719 8.203125 14.488281 C 6.335938 13.292969 1.402344 6.195312 0.65625 3.953125 C 0.355469 3.058594 0.355469 2.460938 0.582031 1.9375 C 0.730469 1.488281 1.179688 0.964844 1.703125 0.890625 C 2.375 0.742188 4.46875 1.785156 4.46875 1.785156 "/></clipPath><clipPath id="64a771195b"><rect x="0" width="12" y="0" height="15"/></clipPath><clipPath id="0252a4f570"><path d="M 22.78125 151.375 L 55.914062 151.375 L 55.914062 163.683594 L 22.78125 163.683594 Z M 22.78125 151.375 "/></clipPath><clipPath id="def2cae688"><path d="M 54.046875 155.726562 C 32.902344 159.609375 27.222656 163.871094 24.832031 163.644531 C 23.859375 163.570312 23.113281 162.972656 22.886719 162.449219 C 22.664062 161.851562 23.1875 160.65625 23.558594 160.207031 C 23.859375 159.984375 24.308594 159.835938 24.679688 159.910156 C 25.203125 159.910156 25.953125 160.359375 26.25 160.730469 C 26.472656 161.03125 26.625 161.480469 26.550781 161.925781 C 26.472656 162.375 26.027344 163.125 25.652344 163.421875 C 25.277344 163.644531 24.832031 163.722656 24.457031 163.644531 C 23.933594 163.570312 23.1875 163.125 22.960938 162.601562 C 22.738281 162.078125 22.8125 161.105469 23.410156 160.359375 C 24.90625 158.414062 31.707031 155.726562 36.5625 154.304688 C 41.867188 152.660156 51.359375 150.644531 54.121094 151.691406 C 55.167969 152.0625 55.914062 153.035156 55.914062 153.707031 C 55.914062 154.453125 54.046875 155.726562 54.046875 155.726562 "/></clipPath><clipPath id="f8572b5be3"><path d="M 0.78125 0.375 L 33.914062 0.375 L 33.914062 12.683594 L 0.78125 12.683594 Z M 0.78125 0.375 "/></clipPath><clipPath id="9f308fa266"><path d="M 32.046875 4.726562 C 10.902344 8.609375 5.222656 12.871094 2.832031 12.644531 C 1.859375 12.570312 1.113281 11.972656 0.886719 11.449219 C 0.664062 10.851562 1.1875 9.65625 1.558594 9.207031 C 1.859375 8.984375 2.308594 8.835938 2.679688 8.910156 C 3.203125 8.910156 3.953125 9.359375 4.25 9.730469 C 4.472656 10.03125 4.625 10.480469 4.550781 10.925781 C 4.472656 11.375 4.027344 12.125 3.652344 12.421875 C 3.277344 12.644531 2.832031 12.722656 2.457031 12.644531 C 1.933594 12.570312 1.1875 12.125 0.960938 11.601562 C 0.738281 11.078125 0.8125 10.105469 1.410156 9.359375 C 2.90625 7.414062 9.707031 4.726562 14.5625 3.304688 C 19.867188 1.660156 29.359375 -0.355469 32.121094 0.691406 C 33.167969 1.0625 33.914062 2.035156 33.914062 2.707031 C 33.914062 3.453125 32.046875 4.726562 32.046875 4.726562 "/></clipPath><clipPath id="e45f7b4d32"><rect x="0" width="34" y="0" height="13"/></clipPath><clipPath id="7c7ff20667"><path d="M 10.375 153 L 26.941406 153 L 26.941406 163.46875 L 10.375 163.46875 Z M 10.375 153 "/></clipPath><clipPath id="ddff8e5ea1"><path d="M 23.558594 163.199219 C 13.023438 156.996094 11.828125 157.445312 11.230469 156.921875 C 10.707031 156.472656 10.410156 155.574219 10.410156 154.976562 C 10.410156 154.53125 10.632812 154.007812 11.007812 153.707031 C 11.53125 153.335938 13.023438 153.109375 13.621094 153.257812 C 14.070312 153.410156 14.445312 153.855469 14.59375 154.304688 C 14.816406 154.828125 14.816406 155.800781 14.519531 156.324219 C 14.21875 156.847656 13.324219 157.371094 12.726562 157.445312 C 12.277344 157.519531 11.753906 157.292969 11.378906 157.070312 C 11.007812 156.773438 10.632812 156.398438 10.558594 155.949219 C 10.410156 155.425781 10.484375 154.378906 10.855469 153.933594 C 11.230469 153.410156 11.902344 153.109375 12.726562 153.035156 C 13.847656 152.960938 15.566406 153.632812 17.285156 154.304688 C 19.75 155.425781 24.382812 157.96875 25.800781 159.3125 C 26.472656 159.984375 26.847656 160.507812 26.921875 161.105469 C 26.996094 161.628906 26.773438 162.226562 26.472656 162.601562 C 26.101562 163.046875 25.578125 163.347656 25.054688 163.421875 C 24.605469 163.570312 23.558594 163.199219 23.558594 163.199219 "/></clipPath><clipPath id="9217c127f9"><path d="M 0.375 0 L 16.941406 0 L 16.941406 10.46875 L 0.375 10.46875 Z M 0.375 0 "/></clipPath><clipPath id="5e9fadf469"><path d="M 13.558594 10.199219 C 3.023438 3.996094 1.828125 4.445312 1.230469 3.921875 C 0.707031 3.472656 0.410156 2.574219 0.410156 1.976562 C 0.410156 1.53125 0.632812 1.007812 1.007812 0.707031 C 1.53125 0.335938 3.023438 0.109375 3.621094 0.257812 C 4.070312 0.410156 4.445312 0.855469 4.59375 1.304688 C 4.816406 1.828125 4.816406 2.800781 4.519531 3.324219 C 4.21875 3.847656 3.324219 4.371094 2.726562 4.445312 C 2.277344 4.519531 1.753906 4.292969 1.378906 4.070312 C 1.007812 3.773438 0.632812 3.398438 0.558594 2.949219 C 0.410156 2.425781 0.484375 1.378906 0.855469 0.933594 C 1.230469 0.410156 1.902344 0.109375 2.726562 0.0351562 C 3.847656 -0.0390625 5.566406 0.632812 7.285156 1.304688 C 9.75 2.425781 14.382812 4.96875 15.800781 6.3125 C 16.472656 6.984375 16.847656 7.507812 16.921875 8.105469 C 16.996094 8.628906 16.773438 9.226562 16.472656 9.601562 C 16.101562 10.046875 15.578125 10.347656 15.054688 10.421875 C 14.605469 10.570312 13.558594 10.199219 13.558594 10.199219 "/></clipPath><clipPath id="ee221353fa"><rect x="0" width="17" y="0" height="11"/></clipPath><clipPath id="0ccc647d22"><path d="M 9.851562 161 L 31.425781 161 L 31.425781 171.398438 L 9.851562 171.398438 Z M 9.851562 161 "/></clipPath><clipPath id="c3666cf930"><path d="M 29.988281 165.363281 C 11.304688 171.492188 10.707031 171.191406 10.335938 170.671875 C 9.960938 170.074219 9.960938 168.578125 10.335938 167.980469 C 10.632812 167.457031 11.605469 167.007812 12.203125 167.082031 C 12.875 167.15625 14.070312 168.128906 14.21875 168.800781 C 14.445312 169.398438 14.144531 170.371094 13.695312 170.820312 C 13.171875 171.269531 11.753906 171.566406 11.082031 171.269531 C 10.558594 171.042969 9.960938 170.222656 9.886719 169.550781 C 9.886719 168.875 10.335938 168.054688 11.230469 167.308594 C 13.769531 165.214844 26.25 161.179688 28.941406 161.03125 C 29.6875 161.03125 30.0625 161.179688 30.507812 161.480469 C 30.882812 161.703125 31.257812 162.300781 31.332031 162.75 C 31.480469 163.199219 31.40625 163.871094 31.183594 164.320312 C 30.957031 164.765625 29.988281 165.363281 29.988281 165.363281 "/></clipPath><clipPath id="d3916d1a55"><path d="M 0.851562 0 L 22.425781 0 L 22.425781 10.398438 L 0.851562 10.398438 Z M 0.851562 0 "/></clipPath><clipPath id="a8101fe0dd"><path d="M 20.988281 4.363281 C 2.304688 10.492188 1.707031 10.191406 1.335938 9.671875 C 0.960938 9.074219 0.960938 7.578125 1.335938 6.980469 C 1.632812 6.457031 2.605469 6.007812 3.203125 6.082031 C 3.875 6.15625 5.070312 7.128906 5.21875 7.800781 C 5.445312 8.398438 5.144531 9.371094 4.695312 9.820312 C 4.171875 10.269531 2.753906 10.566406 2.082031 10.269531 C 1.558594 10.042969 0.960938 9.222656 0.886719 8.550781 C 0.886719 7.875 1.335938 7.054688 2.230469 6.308594 C 4.769531 4.214844 17.25 0.179688 19.941406 0.03125 C 20.6875 0.03125 21.0625 0.179688 21.507812 0.480469 C 21.882812 0.703125 22.257812 1.300781 22.332031 1.75 C 22.480469 2.199219 22.40625 2.871094 22.183594 3.320312 C 21.957031 3.765625 20.988281 4.363281 20.988281 4.363281 "/></clipPath><clipPath id="14408ad8b0"><rect x="0" width="23" y="0" height="11"/></clipPath><clipPath id="64dcabd1ca"><path d="M 21.746094 161 L 28.539062 161 L 28.539062 178 L 21.746094 178 Z M 21.746094 161 "/></clipPath><clipPath id="285e694286"><path d="M 26.324219 162.675781 C 28.191406 171.640625 28.941406 175.078125 28.269531 176.5 C 27.820312 177.394531 26.773438 178.066406 26.101562 177.992188 C 25.429688 177.992188 24.308594 177.023438 24.082031 176.347656 C 23.859375 175.75 24.234375 174.78125 24.605469 174.40625 C 24.90625 174.03125 25.355469 173.808594 25.800781 173.734375 C 26.25 173.660156 26.773438 173.660156 27.148438 173.882812 C 27.671875 174.183594 28.191406 175.003906 28.34375 175.601562 C 28.417969 176.050781 28.34375 176.574219 28.042969 176.945312 C 27.746094 177.394531 26.921875 177.992188 26.324219 177.992188 C 25.652344 177.992188 24.753906 177.46875 24.15625 176.574219 C 22.738281 174.40625 21.167969 165.066406 21.992188 162.75 C 22.363281 161.777344 23.261719 161.253906 23.859375 161.03125 C 24.382812 160.957031 24.980469 161.179688 25.429688 161.40625 C 25.800781 161.703125 26.324219 162.675781 26.324219 162.675781 "/></clipPath><clipPath id="17d3073be9"><path d="M 0.746094 0 L 7.539062 0 L 7.539062 17 L 0.746094 17 Z M 0.746094 0 "/></clipPath><clipPath id="9ab1a65acb"><path d="M 5.324219 1.675781 C 7.191406 10.640625 7.941406 14.078125 7.269531 15.5 C 6.820312 16.394531 5.773438 17.066406 5.101562 16.992188 C 4.429688 16.992188 3.308594 16.023438 3.082031 15.347656 C 2.859375 14.75 3.234375 13.78125 3.605469 13.40625 C 3.90625 13.03125 4.355469 12.808594 4.800781 12.734375 C 5.25 12.660156 5.773438 12.660156 6.148438 12.882812 C 6.671875 13.183594 7.191406 14.003906 7.34375 14.601562 C 7.417969 15.050781 7.34375 15.574219 7.042969 15.945312 C 6.746094 16.394531 5.921875 16.992188 5.324219 16.992188 C 4.652344 16.992188 3.753906 16.46875 3.15625 15.574219 C 1.738281 13.40625 0.167969 4.066406 0.992188 1.75 C 1.363281 0.777344 2.261719 0.253906 2.859375 0.03125 C 3.382812 -0.0429688 3.980469 0.179688 4.429688 0.40625 C 4.800781 0.703125 5.324219 1.675781 5.324219 1.675781 "/></clipPath><clipPath id="436ecc9e47"><rect x="0" width="8" y="0" height="17"/></clipPath><clipPath id="14056a1ad9"><path d="M 78.714844 42.570312 L 119.644531 42.570312 L 119.644531 96.289062 L 78.714844 96.289062 Z M 78.714844 42.570312 "/></clipPath><clipPath id="95a226f214"><path d="M 78.78125 93.40625 C 100.453125 57.539062 101.574219 56.117188 104.1875 53.429688 C 107.625 50.066406 114.949219 43.640625 117.039062 42.816406 C 117.5625 42.59375 117.863281 42.667969 118.234375 42.816406 C 118.683594 42.964844 119.355469 43.488281 119.507812 44.011719 C 119.65625 44.609375 119.207031 45.804688 118.757812 46.179688 C 118.3125 46.476562 117.488281 46.476562 116.964844 46.328125 C 116.59375 46.179688 116.292969 45.878906 116.070312 45.507812 C 115.917969 45.207031 115.769531 44.761719 115.84375 44.386719 C 115.917969 43.863281 116.367188 43.117188 116.890625 42.890625 C 117.414062 42.667969 118.683594 42.890625 119.058594 43.339844 C 119.507812 43.789062 119.65625 44.761719 119.28125 45.582031 C 118.460938 47.597656 112.332031 50.363281 109.34375 53.277344 C 106.28125 56.191406 104.1875 58.660156 101.050781 63.066406 C 95.742188 70.613281 85.953125 93.257812 81.917969 95.722656 C 80.875 96.394531 79.828125 96.394531 79.304688 95.945312 C 78.78125 95.574219 78.78125 93.40625 78.78125 93.40625 "/></clipPath><clipPath id="1343d27b4f"><path d="M 0.714844 0.570312 L 41.644531 0.570312 L 41.644531 54.289062 L 0.714844 54.289062 Z M 0.714844 0.570312 "/></clipPath><clipPath id="f86f0368d9"><path d="M 0.78125 51.40625 C 22.453125 15.539062 23.574219 14.117188 26.1875 11.429688 C 29.625 8.066406 36.949219 1.640625 39.039062 0.816406 C 39.5625 0.59375 39.863281 0.667969 40.234375 0.816406 C 40.683594 0.964844 41.355469 1.488281 41.507812 2.011719 C 41.65625 2.609375 41.207031 3.804688 40.757812 4.179688 C 40.3125 4.476562 39.488281 4.476562 38.964844 4.328125 C 38.59375 4.179688 38.292969 3.878906 38.070312 3.507812 C 37.917969 3.207031 37.769531 2.761719 37.84375 2.386719 C 37.917969 1.863281 38.367188 1.117188 38.890625 0.890625 C 39.414062 0.667969 40.683594 0.890625 41.058594 1.339844 C 41.507812 1.789062 41.65625 2.761719 41.28125 3.582031 C 40.460938 5.597656 34.332031 8.363281 31.34375 11.277344 C 28.28125 14.191406 26.1875 16.660156 23.050781 21.066406 C 17.742188 28.613281 7.953125 51.257812 3.917969 53.722656 C 2.875 54.394531 1.828125 54.394531 1.304688 53.945312 C 0.78125 53.574219 0.78125 51.40625 0.78125 51.40625 "/></clipPath><clipPath id="76336f43d9"><rect x="0" width="42" y="0" height="55"/></clipPath><clipPath id="6a470c4c90"><path d="M 122.078125 39.710938 L 173.1875 39.710938 L 173.1875 45.601562 L 122.078125 45.601562 Z M 122.078125 39.710938 "/></clipPath><clipPath id="f84f467e00"><path d="M 124.0625 40.949219 C 167.703125 38.929688 171.589844 39.753906 172.710938 41.171875 C 173.308594 41.921875 173.234375 43.265625 172.785156 43.863281 C 172.410156 44.386719 170.992188 44.835938 170.320312 44.609375 C 169.722656 44.460938 169.046875 43.714844 168.898438 43.117188 C 168.75 42.519531 168.972656 41.621094 169.347656 41.171875 C 169.796875 40.726562 170.691406 40.425781 171.289062 40.425781 C 171.738281 40.425781 172.261719 40.648438 172.558594 41.023438 C 172.933594 41.546875 173.234375 42.964844 172.933594 43.640625 C 172.710938 44.160156 171.886719 44.683594 171.214844 44.761719 C 170.320312 44.835938 169.347656 43.488281 167.777344 43.117188 C 164.9375 42.445312 160.082031 42.519531 154.777344 42.59375 C 146.707031 42.816406 127.875 46.851562 123.914062 45.207031 C 122.71875 44.683594 122.046875 43.714844 122.121094 43.042969 C 122.121094 42.292969 124.0625 40.949219 124.0625 40.949219 "/></clipPath><clipPath id="b0b9f6bedf"><path d="M 0.078125 0.710938 L 51.1875 0.710938 L 51.1875 6.601562 L 0.078125 6.601562 Z M 0.078125 0.710938 "/></clipPath><clipPath id="b7388d35f1"><path d="M 2.0625 1.949219 C 45.703125 -0.0703125 49.589844 0.753906 50.710938 2.171875 C 51.308594 2.921875 51.234375 4.265625 50.785156 4.863281 C 50.410156 5.386719 48.992188 5.835938 48.320312 5.609375 C 47.722656 5.460938 47.046875 4.714844 46.898438 4.117188 C 46.75 3.519531 46.972656 2.621094 47.347656 2.171875 C 47.796875 1.726562 48.691406 1.425781 49.289062 1.425781 C 49.738281 1.425781 50.261719 1.648438 50.558594 2.023438 C 50.933594 2.546875 51.234375 3.964844 50.933594 4.640625 C 50.710938 5.160156 49.886719 5.683594 49.214844 5.761719 C 48.320312 5.835938 47.347656 4.488281 45.777344 4.117188 C 42.9375 3.445312 38.082031 3.519531 32.777344 3.59375 C 24.707031 3.816406 5.875 7.851562 1.914062 6.207031 C 0.71875 5.683594 0.046875 4.714844 0.121094 4.042969 C 0.121094 3.292969 2.0625 1.949219 2.0625 1.949219 "/></clipPath><clipPath id="be2c12e67c"><rect x="0" width="52" y="0" height="7"/></clipPath><clipPath id="83622ef6d4"><path d="M 113.847656 45.675781 L 173 45.675781 L 173 110 L 113.847656 110 Z M 113.847656 45.675781 "/></clipPath><clipPath id="d479a64fb9"><path d="M 172.859375 48.570312 C 169.347656 53.949219 164.9375 57.761719 162.171875 59.703125 C 160.15625 61.125 158.738281 61.945312 156.570312 62.917969 C 153.804688 64.1875 146.78125 65.160156 146.707031 66.355469 C 146.707031 67.25 151.039062 67.925781 152.609375 69.046875 C 153.953125 69.941406 155 70.839844 155.820312 72.257812 C 156.792969 73.976562 157.242188 77.039062 157.539062 78.984375 C 157.691406 80.476562 157.839844 81.671875 157.617188 82.871094 C 157.316406 83.914062 156.792969 84.886719 156.121094 85.707031 C 155.375 86.605469 154.777344 87.351562 153.355469 87.875 C 150.21875 89.070312 138.484375 86.679688 136.691406 88.921875 C 135.648438 90.191406 137.515625 92.734375 137.589844 94.898438 C 137.664062 97.441406 137.367188 101.25 136.765625 103.269531 C 136.320312 104.539062 135.871094 105.4375 135.199219 106.257812 C 134.449219 107.003906 133.628906 107.527344 132.507812 108.050781 C 131.089844 108.648438 129.144531 109.023438 126.980469 109.320312 C 123.988281 109.695312 118.386719 110.367188 116.21875 109.695312 C 115.171875 109.320312 114.351562 108.722656 114.050781 108.050781 C 113.828125 107.453125 114.125 106.480469 114.5 106.035156 C 114.875 105.585938 115.84375 105.210938 116.441406 105.210938 C 117.039062 105.285156 117.863281 105.882812 118.160156 106.40625 C 118.460938 106.929688 118.460938 107.902344 118.160156 108.5 C 117.863281 109.023438 117.039062 109.621094 116.441406 109.621094 C 115.84375 109.695312 114.875 109.394531 114.5 108.875 C 114.125 108.351562 113.976562 106.855469 114.351562 106.257812 C 114.648438 105.660156 115.246094 105.511719 116.21875 105.210938 C 118.460938 104.539062 126.304688 105.0625 129.070312 104.316406 C 130.414062 103.941406 131.164062 103.941406 131.910156 102.894531 C 133.40625 100.726562 132.210938 92.058594 133.105469 88.847656 C 133.628906 87.054688 133.703125 85.859375 135.046875 84.886719 C 137.738281 83.09375 148.574219 84.664062 151.265625 83.765625 C 152.308594 83.46875 152.832031 83.316406 153.207031 82.570312 C 153.953125 81 153.503906 75.996094 151.9375 73.601562 C 150.144531 70.914062 143.042969 69.941406 142.148438 67.773438 C 141.625 66.503906 142.148438 64.859375 143.195312 63.664062 C 144.988281 61.648438 151.710938 60.675781 154.703125 59.257812 C 156.71875 58.285156 157.914062 57.613281 159.632812 56.417969 C 162.023438 54.699219 165.761719 51.859375 167.480469 49.765625 C 168.675781 48.421875 168.898438 46.328125 169.871094 45.878906 C 170.617188 45.507812 172.113281 45.730469 172.558594 46.253906 C 173.007812 46.703125 172.859375 48.570312 172.859375 48.570312 "/></clipPath><clipPath id="e990c91d1c"><path d="M 0.847656 0.675781 L 60 0.675781 L 60 65 L 0.847656 65 Z M 0.847656 0.675781 "/></clipPath><clipPath id="3aea7b7ab0"><path d="M 59.859375 3.570312 C 56.347656 8.949219 51.9375 12.761719 49.171875 14.703125 C 47.15625 16.125 45.738281 16.945312 43.570312 17.917969 C 40.804688 19.1875 33.78125 20.160156 33.707031 21.355469 C 33.707031 22.25 38.039062 22.925781 39.609375 24.046875 C 40.953125 24.941406 42 25.839844 42.820312 27.257812 C 43.792969 28.976562 44.242188 32.039062 44.539062 33.984375 C 44.691406 35.476562 44.839844 36.671875 44.617188 37.871094 C 44.316406 38.914062 43.792969 39.886719 43.121094 40.707031 C 42.375 41.605469 41.777344 42.351562 40.355469 42.875 C 37.21875 44.070312 25.484375 41.679688 23.691406 43.921875 C 22.648438 45.191406 24.515625 47.734375 24.589844 49.898438 C 24.664062 52.441406 24.367188 56.25 23.765625 58.269531 C 23.320312 59.539062 22.871094 60.4375 22.199219 61.257812 C 21.449219 62.003906 20.628906 62.527344 19.507812 63.050781 C 18.089844 63.648438 16.144531 64.023438 13.980469 64.320312 C 10.988281 64.695312 5.386719 65.367188 3.21875 64.695312 C 2.171875 64.320312 1.351562 63.722656 1.050781 63.050781 C 0.828125 62.453125 1.125 61.480469 1.5 61.035156 C 1.875 60.585938 2.84375 60.210938 3.441406 60.210938 C 4.039062 60.285156 4.863281 60.882812 5.160156 61.40625 C 5.460938 61.929688 5.460938 62.902344 5.160156 63.5 C 4.863281 64.023438 4.039062 64.621094 3.441406 64.621094 C 2.84375 64.695312 1.875 64.394531 1.5 63.875 C 1.125 63.351562 0.976562 61.855469 1.351562 61.257812 C 1.648438 60.660156 2.246094 60.511719 3.21875 60.210938 C 5.460938 59.539062 13.304688 60.0625 16.070312 59.316406 C 17.414062 58.941406 18.164062 58.941406 18.910156 57.894531 C 20.40625 55.726562 19.210938 47.058594 20.105469 43.847656 C 20.628906 42.054688 20.703125 40.859375 22.046875 39.886719 C 24.738281 38.09375 35.574219 39.664062 38.265625 38.765625 C 39.308594 38.46875 39.832031 38.316406 40.207031 37.570312 C 40.953125 36 40.503906 30.996094 38.9375 28.601562 C 37.144531 25.914062 30.042969 24.941406 29.148438 22.773438 C 28.625 21.503906 29.148438 19.859375 30.195312 18.664062 C 31.988281 16.648438 38.710938 15.675781 41.703125 14.257812 C 43.71875 13.285156 44.914062 12.613281 46.632812 11.417969 C 49.023438 9.699219 52.761719 6.859375 54.480469 4.765625 C 55.675781 3.421875 55.898438 1.328125 56.871094 0.878906 C 57.617188 0.507812 59.113281 0.730469 59.558594 1.253906 C 60.007812 1.703125 59.859375 3.570312 59.859375 3.570312 "/></clipPath><clipPath id="8014838ede"><rect x="0" width="60" y="0" height="65"/></clipPath><clipPath id="4d0d6083e3"><path d="M 109.398438 106.609375 L 211.21875 106.609375 L 211.21875 174.875 L 109.398438 174.875 Z M 109.398438 106.609375 "/></clipPath><clipPath id="e419c806c9"><path d="M 133.929688 106.707031 C 145.0625 111.636719 190.792969 139.0625 201.628906 146.757812 C 205.589844 149.597656 207.753906 151.242188 209.25 153.109375 C 210.222656 154.304688 210.667969 155.203125 210.894531 156.324219 C 211.191406 157.445312 211.117188 158.714844 210.894531 159.6875 C 210.59375 160.65625 210.296875 161.480469 209.550781 162.300781 C 208.429688 163.421875 206.410156 164.617188 204.167969 165.214844 C 201.179688 166.113281 195.648438 166.484375 192.660156 165.886719 C 190.570312 165.515625 188.328125 162.972656 187.65625 163.421875 C 186.980469 163.945312 189.148438 167.679688 189 169.324219 C 188.851562 170.445312 188.328125 171.417969 187.65625 172.3125 C 187.058594 173.136719 186.011719 173.882812 185.1875 174.257812 C 184.441406 174.628906 183.695312 174.628906 182.871094 174.707031 C 181.976562 174.78125 181.003906 174.929688 180.03125 174.707031 C 178.910156 174.480469 177.792969 173.808594 176.59375 172.910156 C 174.953125 171.792969 172.933594 170.148438 171.441406 168.128906 C 169.570312 165.8125 166.882812 161.328125 166.730469 159.460938 C 166.730469 158.488281 167.179688 157.816406 167.703125 157.371094 C 168.152344 156.921875 169.273438 156.773438 169.871094 156.921875 C 170.46875 157.070312 170.992188 157.371094 171.289062 157.96875 C 171.738281 158.9375 171.664062 161.253906 171.441406 162.675781 C 171.363281 163.722656 171.214844 164.542969 170.617188 165.589844 C 169.796875 167.082031 167.40625 169.550781 165.910156 170.519531 C 164.9375 171.191406 164.191406 171.566406 163.070312 171.566406 C 161.5 171.640625 158.960938 170.820312 157.464844 170.074219 C 156.269531 169.398438 155.671875 168.578125 154.625 167.457031 C 153.058594 165.738281 150.292969 162.449219 149.246094 160.65625 C 148.648438 159.609375 149.171875 158.714844 148.199219 157.96875 C 145.359375 155.875 129.816406 155.425781 123.019531 156.25 C 118.234375 156.773438 113.078125 160.359375 111.0625 159.835938 C 110.242188 159.6875 109.792969 159.011719 109.566406 158.414062 C 109.417969 157.816406 109.492188 156.847656 109.941406 156.398438 C 110.390625 155.875 111.808594 155.5 112.480469 155.726562 C 113.078125 155.875 113.753906 156.695312 113.828125 157.292969 C 113.976562 157.890625 113.753906 158.863281 113.304688 159.3125 C 112.707031 159.761719 111.285156 159.984375 110.613281 159.6875 C 110.089844 159.460938 109.566406 158.566406 109.492188 157.96875 C 109.417969 157.371094 109.640625 156.621094 110.242188 156.023438 C 111.585938 154.828125 116.59375 153.558594 118.984375 152.960938 C 120.628906 152.585938 121.226562 152.511719 123.167969 152.363281 C 127.949219 152.136719 143.867188 152.289062 148.199219 153.035156 C 149.695312 153.335938 150.367188 153.335938 151.1875 154.082031 C 152.234375 154.976562 152.460938 156.996094 153.582031 158.566406 C 155.222656 160.882812 158.585938 165.441406 160.679688 166.1875 C 161.875 166.636719 163.070312 166.261719 164.042969 165.8125 C 165.011719 165.289062 165.984375 164.320312 166.582031 163.199219 C 167.253906 161.777344 166.65625 158.789062 167.253906 157.816406 C 167.628906 157.21875 168.226562 156.996094 168.75 156.847656 C 169.273438 156.773438 169.796875 156.773438 170.394531 157.144531 C 172.039062 158.265625 174.429688 164.917969 176.671875 167.007812 C 178.238281 168.578125 180.257812 169.699219 181.675781 169.847656 C 182.648438 169.996094 183.769531 169.847656 184.21875 169.101562 C 184.964844 168.054688 183.621094 164.46875 183.84375 162.675781 C 183.992188 161.480469 184.144531 160.207031 184.890625 159.535156 C 185.710938 158.863281 187.355469 158.863281 188.777344 159.089844 C 190.71875 159.3125 193.035156 161.253906 195.050781 161.628906 C 196.921875 161.925781 198.714844 161.628906 200.507812 161.40625 C 202.300781 161.179688 204.691406 161.179688 205.8125 160.433594 C 206.558594 159.910156 207.007812 158.9375 207.15625 158.117188 C 207.308594 157.371094 207.007812 156.472656 206.632812 155.800781 C 206.335938 155.128906 205.886719 154.902344 205.066406 154.15625 C 202.675781 152.0625 196.847656 147.804688 190.269531 143.546875 C 177.941406 135.476562 143.269531 115 135.871094 111.339844 C 134.003906 110.515625 132.957031 110.742188 132.285156 109.992188 C 131.761719 109.394531 131.386719 108.199219 131.6875 107.601562 C 131.910156 107.078125 133.929688 106.707031 133.929688 106.707031 "/></clipPath><clipPath id="dc1ca5caa8"><path d="M 0.398438 0.644531 L 102.21875 0.644531 L 102.21875 68.875 L 0.398438 68.875 Z M 0.398438 0.644531 "/></clipPath><clipPath id="0bb34d4eb4"><path d="M 24.929688 0.707031 C 36.0625 5.636719 81.792969 33.0625 92.628906 40.757812 C 96.589844 43.597656 98.753906 45.242188 100.25 47.109375 C 101.222656 48.304688 101.667969 49.203125 101.894531 50.324219 C 102.191406 51.445312 102.117188 52.714844 101.894531 53.6875 C 101.59375 54.65625 101.296875 55.480469 100.550781 56.300781 C 99.429688 57.421875 97.410156 58.617188 95.167969 59.214844 C 92.179688 60.113281 86.648438 60.484375 83.660156 59.886719 C 81.570312 59.515625 79.328125 56.972656 78.65625 57.421875 C 77.980469 57.945312 80.148438 61.679688 80 63.324219 C 79.851562 64.445312 79.328125 65.417969 78.65625 66.3125 C 78.058594 67.136719 77.011719 67.882812 76.1875 68.257812 C 75.441406 68.628906 74.695312 68.628906 73.871094 68.707031 C 72.976562 68.78125 72.003906 68.929688 71.03125 68.707031 C 69.910156 68.480469 68.792969 67.808594 67.59375 66.910156 C 65.953125 65.792969 63.933594 64.148438 62.441406 62.128906 C 60.570312 59.8125 57.882812 55.328125 57.730469 53.460938 C 57.730469 52.488281 58.179688 51.816406 58.703125 51.371094 C 59.152344 50.921875 60.273438 50.773438 60.871094 50.921875 C 61.46875 51.070312 61.992188 51.371094 62.289062 51.96875 C 62.738281 52.9375 62.664062 55.253906 62.441406 56.675781 C 62.363281 57.722656 62.214844 58.542969 61.617188 59.589844 C 60.796875 61.082031 58.40625 63.550781 56.910156 64.519531 C 55.9375 65.191406 55.191406 65.566406 54.070312 65.566406 C 52.5 65.640625 49.960938 64.820312 48.464844 64.074219 C 47.269531 63.398438 46.671875 62.578125 45.625 61.457031 C 44.058594 59.738281 41.292969 56.449219 40.246094 54.65625 C 39.648438 53.609375 40.171875 52.714844 39.199219 51.96875 C 36.359375 49.875 20.816406 49.425781 14.019531 50.25 C 9.234375 50.773438 4.078125 54.359375 2.0625 53.835938 C 1.242188 53.6875 0.792969 53.011719 0.566406 52.414062 C 0.417969 51.816406 0.492188 50.847656 0.941406 50.398438 C 1.390625 49.875 2.808594 49.5 3.480469 49.726562 C 4.078125 49.875 4.753906 50.695312 4.828125 51.292969 C 4.976562 51.890625 4.753906 52.863281 4.304688 53.3125 C 3.707031 53.761719 2.285156 53.984375 1.613281 53.6875 C 1.089844 53.460938 0.566406 52.566406 0.492188 51.96875 C 0.417969 51.371094 0.640625 50.621094 1.242188 50.023438 C 2.585938 48.828125 7.59375 47.558594 9.984375 46.960938 C 11.628906 46.585938 12.226562 46.511719 14.167969 46.363281 C 18.949219 46.136719 34.867188 46.289062 39.199219 47.035156 C 40.695312 47.335938 41.367188 47.335938 42.1875 48.082031 C 43.234375 48.976562 43.460938 50.996094 44.582031 52.566406 C 46.222656 54.882812 49.585938 59.441406 51.679688 60.1875 C 52.875 60.636719 54.070312 60.261719 55.042969 59.8125 C 56.011719 59.289062 56.984375 58.320312 57.582031 57.199219 C 58.253906 55.777344 57.65625 52.789062 58.253906 51.816406 C 58.628906 51.21875 59.226562 50.996094 59.75 50.847656 C 60.273438 50.773438 60.796875 50.773438 61.394531 51.144531 C 63.039062 52.265625 65.429688 58.917969 67.671875 61.007812 C 69.238281 62.578125 71.257812 63.699219 72.675781 63.847656 C 73.648438 63.996094 74.769531 63.847656 75.21875 63.101562 C 75.964844 62.054688 74.621094 58.46875 74.84375 56.675781 C 74.992188 55.480469 75.144531 54.207031 75.890625 53.535156 C 76.710938 52.863281 78.355469 52.863281 79.777344 53.089844 C 81.71875 53.3125 84.035156 55.253906 86.050781 55.628906 C 87.921875 55.925781 89.714844 55.628906 91.507812 55.40625 C 93.300781 55.179688 95.691406 55.179688 96.8125 54.433594 C 97.558594 53.910156 98.007812 52.9375 98.15625 52.117188 C 98.308594 51.371094 98.007812 50.472656 97.632812 49.800781 C 97.335938 49.128906 96.886719 48.902344 96.066406 48.15625 C 93.675781 46.0625 87.847656 41.804688 81.269531 37.546875 C 68.941406 29.476562 34.269531 9 26.871094 5.339844 C 25.003906 4.515625 23.957031 4.742188 23.285156 3.992188 C 22.761719 3.394531 22.386719 2.199219 22.6875 1.601562 C 22.910156 1.078125 24.929688 0.707031 24.929688 0.707031 "/></clipPath><clipPath id="853008c766"><rect x="0" width="103" y="0" height="69"/></clipPath><clipPath id="86539a432d"><path d="M 19.78125 47.332031 L 92 47.332031 L 92 83.359375 L 19.78125 83.359375 Z M 19.78125 47.332031 "/></clipPath><clipPath id="25ba8f9d34"><path d="M 21.242188 71.0625 C 19.75 65.53125 19.601562 64.710938 20.273438 63.664062 C 21.765625 61.273438 29.238281 57.089844 32.824219 54.847656 C 35.441406 53.203125 37.457031 52.230469 39.851562 51.113281 C 42.167969 50.066406 44.707031 48.871094 46.875 48.273438 C 48.519531 47.75 50.238281 47.226562 51.507812 47.375 C 52.476562 47.449219 52.925781 47.75 53.898438 48.273438 C 55.914062 49.46875 60.398438 53.128906 62.492188 55.296875 C 63.910156 56.863281 64.507812 57.761719 65.703125 59.628906 C 67.648438 62.769531 69.515625 70.242188 72.652344 72.558594 C 75.121094 74.351562 78.707031 73.15625 81.472656 74.203125 C 84.085938 75.171875 87.074219 78.011719 88.871094 78.535156 C 89.691406 78.835938 90.363281 78.460938 90.8125 78.683594 C 91.335938 78.910156 91.707031 79.433594 91.859375 79.878906 C 92.007812 80.554688 91.933594 81.671875 91.558594 82.195312 C 91.1875 82.792969 90.214844 83.316406 89.542969 83.242188 C 88.71875 83.167969 87.449219 82.195312 87.152344 81.449219 C 86.925781 80.777344 87.226562 79.65625 87.671875 79.207031 C 88.121094 78.683594 89.167969 78.234375 89.839844 78.3125 C 90.511719 78.460938 91.410156 79.058594 91.785156 79.65625 C 92.082031 80.253906 92.082031 81.375 91.707031 81.972656 C 91.261719 82.644531 90.140625 83.242188 89.019531 83.167969 C 87.074219 83.09375 84.160156 80.03125 81.398438 78.984375 C 78.332031 77.863281 73.625 78.160156 71.160156 76.816406 C 69.441406 75.84375 68.84375 74.648438 67.5 72.855469 C 65.179688 69.566406 62.566406 62.097656 59.578125 58.285156 C 57.113281 55.222656 54.496094 51.785156 51.507812 51.1875 C 48.59375 50.589844 44.558594 53.277344 41.71875 54.546875 C 39.253906 55.59375 37.457031 56.566406 35.066406 58.210938 C 31.855469 60.453125 24.832031 65.160156 24.234375 67.402344 C 24.007812 68.371094 25.203125 69.121094 25.203125 69.867188 C 25.277344 70.539062 25.054688 71.363281 24.605469 71.734375 C 24.234375 72.109375 23.335938 72.40625 22.738281 72.257812 C 22.214844 72.183594 21.242188 71.0625 21.242188 71.0625 "/></clipPath><clipPath id="f9e1b6222a"><path d="M 0.78125 0.332031 L 73 0.332031 L 73 36.359375 L 0.78125 36.359375 Z M 0.78125 0.332031 "/></clipPath><clipPath id="1a307e9bda"><path d="M 2.242188 24.0625 C 0.75 18.53125 0.601562 17.710938 1.273438 16.664062 C 2.765625 14.273438 10.238281 10.089844 13.824219 7.847656 C 16.441406 6.203125 18.457031 5.230469 20.851562 4.113281 C 23.167969 3.066406 25.707031 1.871094 27.875 1.273438 C 29.519531 0.75 31.238281 0.226562 32.507812 0.375 C 33.476562 0.449219 33.925781 0.75 34.898438 1.273438 C 36.914062 2.46875 41.398438 6.128906 43.492188 8.296875 C 44.910156 9.863281 45.507812 10.761719 46.703125 12.628906 C 48.648438 15.769531 50.515625 23.242188 53.652344 25.558594 C 56.121094 27.351562 59.707031 26.15625 62.472656 27.203125 C 65.085938 28.171875 68.074219 31.011719 69.871094 31.535156 C 70.691406 31.835938 71.363281 31.460938 71.8125 31.683594 C 72.335938 31.910156 72.707031 32.433594 72.859375 32.878906 C 73.007812 33.554688 72.933594 34.671875 72.558594 35.195312 C 72.1875 35.792969 71.214844 36.316406 70.542969 36.242188 C 69.71875 36.167969 68.449219 35.195312 68.152344 34.449219 C 67.925781 33.777344 68.226562 32.65625 68.671875 32.207031 C 69.121094 31.683594 70.167969 31.234375 70.839844 31.3125 C 71.511719 31.460938 72.410156 32.058594 72.785156 32.65625 C 73.082031 33.253906 73.082031 34.375 72.707031 34.972656 C 72.261719 35.644531 71.140625 36.242188 70.019531 36.167969 C 68.074219 36.09375 65.160156 33.03125 62.398438 31.984375 C 59.332031 30.863281 54.625 31.160156 52.160156 29.816406 C 50.441406 28.84375 49.84375 27.648438 48.5 25.855469 C 46.179688 22.566406 43.566406 15.097656 40.578125 11.285156 C 38.113281 8.222656 35.496094 4.785156 32.507812 4.1875 C 29.59375 3.589844 25.558594 6.277344 22.71875 7.546875 C 20.253906 8.59375 18.457031 9.566406 16.066406 11.210938 C 12.855469 13.453125 5.832031 18.160156 5.234375 20.402344 C 5.007812 21.371094 6.203125 22.121094 6.203125 22.867188 C 6.277344 23.539062 6.054688 24.363281 5.605469 24.734375 C 5.234375 25.109375 4.335938 25.40625 3.738281 25.257812 C 3.214844 25.183594 2.242188 24.0625 2.242188 24.0625 "/></clipPath><clipPath id="95c4e59bb7"><rect x="0" width="73" y="0" height="37"/></clipPath><clipPath id="61495baf49"><path d="M 36.976562 65 L 52 65 L 52 75.507812 L 36.976562 75.507812 Z M 36.976562 65 "/></clipPath><clipPath id="6ab05b4944"><path d="M 37.757812 71.585938 C 42.167969 68.222656 47.398438 64.933594 49.488281 65.011719 C 50.535156 65.011719 51.582031 65.609375 51.878906 66.28125 C 52.179688 66.953125 51.730469 68.449219 51.28125 68.96875 C 50.984375 69.34375 50.386719 69.492188 49.9375 69.492188 C 49.339844 69.417969 48.367188 69.046875 47.996094 68.597656 C 47.621094 68.074219 47.472656 67.101562 47.695312 66.503906 C 47.921875 65.90625 48.59375 65.160156 49.265625 65.085938 C 49.9375 64.933594 51.359375 65.457031 51.730469 66.054688 C 52.105469 66.652344 52.03125 67.925781 51.433594 68.746094 C 50.3125 70.316406 45.007812 71.585938 42.988281 72.929688 C 41.792969 73.679688 41.121094 74.875 40.296875 75.246094 C 39.699219 75.472656 39.175781 75.546875 38.730469 75.472656 C 38.207031 75.320312 37.683594 74.949219 37.382812 74.5 C 37.085938 74.125 36.9375 73.453125 37.011719 72.929688 C 37.085938 72.484375 37.757812 71.585938 37.757812 71.585938 "/></clipPath><clipPath id="347605691d"><path d="M 0.976562 0 L 16 0 L 16 10.507812 L 0.976562 10.507812 Z M 0.976562 0 "/></clipPath><clipPath id="f7d4bc59c9"><path d="M 1.757812 6.585938 C 6.167969 3.222656 11.398438 -0.0664062 13.488281 0.0117188 C 14.535156 0.0117188 15.582031 0.609375 15.878906 1.28125 C 16.179688 1.953125 15.730469 3.449219 15.28125 3.96875 C 14.984375 4.34375 14.386719 4.492188 13.9375 4.492188 C 13.339844 4.417969 12.367188 4.046875 11.996094 3.597656 C 11.621094 3.074219 11.472656 2.101562 11.695312 1.503906 C 11.921875 0.90625 12.59375 0.160156 13.265625 0.0859375 C 13.9375 -0.0664062 15.359375 0.457031 15.730469 1.054688 C 16.105469 1.652344 16.03125 2.925781 15.433594 3.746094 C 14.3125 5.316406 9.007812 6.585938 6.988281 7.929688 C 5.792969 8.679688 5.121094 9.875 4.296875 10.246094 C 3.699219 10.472656 3.175781 10.546875 2.730469 10.472656 C 2.207031 10.320312 1.683594 9.949219 1.382812 9.5 C 1.085938 9.125 0.9375 8.453125 1.011719 7.929688 C 1.085938 7.484375 1.757812 6.585938 1.757812 6.585938 "/></clipPath><clipPath id="580cc36118"><rect x="0" width="16" y="0" height="11"/></clipPath><clipPath id="d0703caac8"><path d="M 39.703125 69.4375 L 44.804688 69.4375 L 44.804688 78.0625 L 39.703125 78.0625 Z M 39.703125 69.4375 "/></clipPath><clipPath id="667740aaca"><path d="M 44.558594 71.734375 C 44.109375 77.117188 43.289062 77.9375 42.539062 78.011719 C 41.867188 78.085938 40.746094 77.5625 40.296875 76.816406 C 39.625 75.769531 39.550781 73.003906 40 71.734375 C 40.296875 70.765625 40.972656 69.792969 41.644531 69.566406 C 42.242188 69.34375 43.289062 69.566406 43.734375 70.015625 C 44.257812 70.390625 44.707031 71.363281 44.558594 71.960938 C 44.410156 72.707031 43.363281 73.902344 42.613281 73.976562 C 41.941406 74.125 40.523438 73.378906 40.222656 72.707031 C 39.851562 72.183594 39.925781 71.0625 40.296875 70.539062 C 40.746094 69.941406 42.167969 69.417969 42.914062 69.566406 C 43.511719 69.644531 44.109375 70.242188 44.484375 70.988281 C 44.929688 72.183594 44.855469 75.171875 44.484375 76.292969 C 44.257812 76.890625 43.960938 77.339844 43.585938 77.636719 C 43.136719 77.863281 42.539062 78.160156 42.015625 78.011719 C 41.34375 77.863281 40.449219 77.117188 40.074219 76.292969 C 39.550781 75.023438 39.773438 71.734375 40.296875 70.6875 C 40.523438 70.089844 40.972656 69.792969 41.492188 69.644531 C 41.941406 69.417969 42.613281 69.34375 43.0625 69.644531 C 43.660156 69.941406 44.558594 71.734375 44.558594 71.734375 "/></clipPath><clipPath id="29d37a4274"><path d="M 0.703125 0.4375 L 5.804688 0.4375 L 5.804688 9.0625 L 0.703125 9.0625 Z M 0.703125 0.4375 "/></clipPath><clipPath id="8a22c111b4"><path d="M 5.558594 2.734375 C 5.109375 8.117188 4.289062 8.9375 3.539062 9.011719 C 2.867188 9.085938 1.746094 8.5625 1.296875 7.816406 C 0.625 6.769531 0.550781 4.003906 1 2.734375 C 1.296875 1.765625 1.972656 0.792969 2.644531 0.566406 C 3.242188 0.34375 4.289062 0.566406 4.734375 1.015625 C 5.257812 1.390625 5.707031 2.363281 5.558594 2.960938 C 5.410156 3.707031 4.363281 4.902344 3.613281 4.976562 C 2.941406 5.125 1.523438 4.378906 1.222656 3.707031 C 0.851562 3.183594 0.925781 2.0625 1.296875 1.539062 C 1.746094 0.941406 3.167969 0.417969 3.914062 0.566406 C 4.511719 0.644531 5.109375 1.242188 5.484375 1.988281 C 5.929688 3.183594 5.855469 6.171875 5.484375 7.292969 C 5.257812 7.890625 4.960938 8.339844 4.585938 8.636719 C 4.136719 8.863281 3.539062 9.160156 3.015625 9.011719 C 2.34375 8.863281 1.449219 8.117188 1.074219 7.292969 C 0.550781 6.023438 0.773438 2.734375 1.296875 1.6875 C 1.523438 1.089844 1.972656 0.792969 2.492188 0.644531 C 2.941406 0.417969 3.613281 0.34375 4.0625 0.644531 C 4.660156 0.941406 5.558594 2.734375 5.558594 2.734375 "/></clipPath><clipPath id="a80659bc5e"><rect x="0" width="6" y="0" height="10"/></clipPath><clipPath id="353d1f821b"><path d="M 46.144531 2.855469 L 102.253906 2.855469 L 102.253906 49.785156 L 46.144531 49.785156 Z M 46.144531 2.855469 "/></clipPath><clipPath id="ff87be0730"><path d="M 46.277344 46.925781 C 54.71875 26.078125 56.289062 24.585938 58.679688 22.269531 C 61.667969 19.429688 65.929688 15.917969 69.738281 13.601562 C 73.175781 11.433594 76.390625 10.011719 80.351562 8.367188 C 85.058594 6.425781 92.605469 3.289062 96.265625 2.988281 C 98.210938 2.914062 99.703125 2.988281 100.675781 3.8125 C 101.574219 4.558594 101.722656 6.128906 101.871094 7.695312 C 102.171875 10.011719 102.171875 13.078125 101.347656 16.214844 C 100.152344 20.472656 95.96875 28.46875 94.175781 30.636719 C 93.425781 31.382812 92.980469 31.757812 92.304688 31.832031 C 91.632812 31.90625 90.664062 31.535156 90.289062 31.011719 C 89.839844 30.488281 89.617188 29.515625 89.765625 28.84375 C 89.988281 28.246094 90.738281 27.5 91.335938 27.273438 C 91.785156 27.050781 92.382812 27.125 92.828125 27.273438 C 93.277344 27.421875 93.800781 27.722656 94.023438 28.171875 C 94.324219 28.695312 94.398438 29.816406 94.25 30.414062 C 94.101562 30.859375 93.726562 31.308594 93.277344 31.535156 C 92.753906 31.757812 91.632812 31.980469 91.035156 31.609375 C 90.4375 31.234375 89.765625 30.339844 89.765625 29.140625 C 89.691406 26.078125 96.339844 17.558594 97.164062 13.226562 C 97.761719 10.460938 96.042969 6.800781 96.9375 6.128906 C 97.460938 5.679688 99.855469 6.574219 99.855469 7.023438 C 99.855469 8.144531 85.804688 11.285156 80.425781 13.523438 C 76.464844 15.167969 73.476562 16.515625 70.261719 18.457031 C 67.199219 20.398438 64.136719 22.867188 61.746094 25.183594 C 59.726562 27.050781 58.308594 28.320312 56.738281 30.9375 C 54.195312 35.195312 52.253906 47.375 49.789062 49.167969 C 48.890625 49.839844 47.546875 49.691406 46.949219 49.242188 C 46.425781 48.871094 46.277344 46.925781 46.277344 46.925781 "/></clipPath><clipPath id="9fe0b4fabd"><path d="M 0.171875 0.871094 L 56.253906 0.871094 L 56.253906 47.785156 L 0.171875 47.785156 Z M 0.171875 0.871094 "/></clipPath><clipPath id="257ea46a5a"><path d="M 0.277344 44.925781 C 8.71875 24.078125 10.289062 22.585938 12.679688 20.269531 C 15.667969 17.429688 19.929688 13.917969 23.738281 11.601562 C 27.175781 9.433594 30.390625 8.011719 34.351562 6.367188 C 39.058594 4.425781 46.605469 1.289062 50.265625 0.988281 C 52.210938 0.914062 53.703125 0.988281 54.675781 1.8125 C 55.574219 2.558594 55.722656 4.128906 55.871094 5.695312 C 56.171875 8.011719 56.171875 11.078125 55.347656 14.214844 C 54.152344 18.472656 49.96875 26.46875 48.175781 28.636719 C 47.425781 29.382812 46.980469 29.757812 46.304688 29.832031 C 45.632812 29.90625 44.664062 29.535156 44.289062 29.011719 C 43.839844 28.488281 43.617188 27.515625 43.765625 26.84375 C 43.988281 26.246094 44.738281 25.5 45.335938 25.273438 C 45.785156 25.050781 46.382812 25.125 46.828125 25.273438 C 47.277344 25.421875 47.800781 25.722656 48.023438 26.171875 C 48.324219 26.695312 48.398438 27.816406 48.25 28.414062 C 48.101562 28.859375 47.726562 29.308594 47.277344 29.535156 C 46.753906 29.757812 45.632812 29.980469 45.035156 29.609375 C 44.4375 29.234375 43.765625 28.339844 43.765625 27.140625 C 43.691406 24.078125 50.339844 15.558594 51.164062 11.226562 C 51.761719 8.460938 50.042969 4.800781 50.9375 4.128906 C 51.460938 3.679688 53.855469 4.574219 53.855469 5.023438 C 53.855469 6.144531 39.804688 9.285156 34.425781 11.523438 C 30.464844 13.167969 27.476562 14.515625 24.261719 16.457031 C 21.199219 18.398438 18.136719 20.867188 15.746094 23.183594 C 13.726562 25.050781 12.308594 26.320312 10.738281 28.9375 C 8.195312 33.195312 6.253906 45.375 3.789062 47.167969 C 2.890625 47.839844 1.546875 47.691406 0.949219 47.242188 C 0.425781 46.871094 0.277344 44.925781 0.277344 44.925781 "/></clipPath><clipPath id="619affb0ef"><rect x="0" width="57" y="0" height="48"/></clipPath><clipPath id="61e510d017"><path d="M 89.648438 28.808594 L 94.34375 28.808594 L 94.34375 35.273438 L 89.648438 35.273438 Z M 89.648438 28.808594 "/></clipPath><clipPath id="71ba9cc020"><path d="M 94.324219 31.011719 C 93.875 34.375 93.277344 35.046875 92.679688 35.195312 C 91.933594 35.34375 90.585938 34.746094 90.140625 34.148438 C 89.765625 33.699219 89.765625 32.65625 89.988281 32.058594 C 90.289062 31.535156 91.109375 30.9375 91.707031 30.785156 C 92.304688 30.710938 93.277344 31.011719 93.726562 31.457031 C 94.101562 31.90625 94.398438 32.878906 94.25 33.476562 C 94.101562 34.148438 93.503906 34.894531 92.90625 35.121094 C 92.304688 35.34375 91.335938 35.269531 90.8125 34.894531 C 90.289062 34.523438 89.988281 33.699219 89.839844 33.027344 C 89.617188 32.28125 89.617188 31.160156 89.914062 30.488281 C 90.140625 29.816406 90.664062 29.140625 91.261719 28.917969 C 91.859375 28.695312 92.828125 28.84375 93.351562 29.140625 C 93.875 29.515625 94.324219 31.011719 94.324219 31.011719 "/></clipPath><clipPath id="6926968f00"><path d="M 0.648438 0.808594 L 5.34375 0.808594 L 5.34375 7.273438 L 0.648438 7.273438 Z M 0.648438 0.808594 "/></clipPath><clipPath id="84cebf5962"><path d="M 5.324219 3.011719 C 4.875 6.375 4.277344 7.046875 3.679688 7.195312 C 2.933594 7.34375 1.585938 6.746094 1.140625 6.148438 C 0.765625 5.699219 0.765625 4.65625 0.988281 4.058594 C 1.289062 3.535156 2.109375 2.9375 2.707031 2.785156 C 3.304688 2.710938 4.277344 3.011719 4.726562 3.457031 C 5.101562 3.90625 5.398438 4.878906 5.25 5.476562 C 5.101562 6.148438 4.503906 6.894531 3.90625 7.121094 C 3.304688 7.34375 2.335938 7.269531 1.8125 6.894531 C 1.289062 6.523438 0.988281 5.699219 0.839844 5.027344 C 0.617188 4.28125 0.617188 3.160156 0.914062 2.488281 C 1.140625 1.816406 1.664062 1.140625 2.261719 0.917969 C 2.859375 0.695312 3.828125 0.84375 4.351562 1.140625 C 4.875 1.515625 5.324219 3.011719 5.324219 3.011719 "/></clipPath><clipPath id="afd2884d9b"><rect x="0" width="6" y="0" height="8"/></clipPath><clipPath id="564180825a"><path d="M 88.84375 32.039062 L 105.832031 32.039062 L 105.832031 45.675781 L 88.84375 45.675781 Z M 88.84375 32.039062 "/></clipPath><clipPath id="02ab29e9c0"><path d="M 92.082031 32.058594 C 104.488281 40.125 105.832031 42.519531 105.757812 43.789062 C 105.683594 44.535156 105.160156 45.207031 104.636719 45.433594 C 104.113281 45.730469 103.140625 45.730469 102.617188 45.507812 C 102.09375 45.207031 101.648438 44.386719 101.496094 43.789062 C 101.421875 43.339844 101.496094 42.890625 101.796875 42.519531 C 102.09375 42.070312 102.992188 41.546875 103.515625 41.472656 C 103.964844 41.398438 104.488281 41.546875 104.859375 41.84375 C 105.160156 42.070312 105.53125 42.445312 105.683594 42.890625 C 105.757812 43.414062 105.757812 44.460938 105.308594 44.835938 C 104.859375 45.359375 103.441406 45.730469 102.84375 45.582031 C 102.394531 45.433594 102.019531 45.132812 101.796875 44.683594 C 101.496094 44.160156 101.796875 43.191406 101.421875 42.519531 C 100.972656 41.769531 100.226562 41.171875 99.105469 40.425781 C 97.015625 38.929688 90.289062 36.988281 89.242188 35.269531 C 88.71875 34.449219 88.792969 33.328125 89.242188 32.804688 C 89.691406 32.207031 92.082031 32.058594 92.082031 32.058594 "/></clipPath><clipPath id="e12fd5d79d"><path d="M 0.84375 0.0429688 L 17.832031 0.0429688 L 17.832031 13.675781 L 0.84375 13.675781 Z M 0.84375 0.0429688 "/></clipPath><clipPath id="eccf22a5af"><path d="M 4.082031 0.0585938 C 16.488281 8.125 17.832031 10.519531 17.757812 11.789062 C 17.683594 12.535156 17.160156 13.207031 16.636719 13.433594 C 16.113281 13.730469 15.140625 13.730469 14.617188 13.507812 C 14.09375 13.207031 13.648438 12.386719 13.496094 11.789062 C 13.421875 11.339844 13.496094 10.890625 13.796875 10.519531 C 14.09375 10.070312 14.992188 9.546875 15.515625 9.472656 C 15.964844 9.398438 16.488281 9.546875 16.859375 9.84375 C 17.160156 10.070312 17.53125 10.445312 17.683594 10.890625 C 17.757812 11.414062 17.757812 12.460938 17.308594 12.835938 C 16.859375 13.359375 15.441406 13.730469 14.84375 13.582031 C 14.394531 13.433594 14.019531 13.132812 13.796875 12.683594 C 13.496094 12.160156 13.796875 11.191406 13.421875 10.519531 C 12.972656 9.769531 12.226562 9.171875 11.105469 8.425781 C 9.015625 6.929688 2.289062 4.988281 1.242188 3.269531 C 0.71875 2.449219 0.792969 1.328125 1.242188 0.804688 C 1.691406 0.207031 4.082031 0.0585938 4.082031 0.0585938 "/></clipPath><clipPath id="f7a80d812d"><rect x="0" width="18" y="0" height="14"/></clipPath><clipPath id="505566641b"><path d="M 92.859375 43.371094 L 105.804688 43.371094 L 105.804688 66 L 92.859375 66 Z M 92.859375 43.371094 "/></clipPath><clipPath id="4c2ae678cc"><path d="M 105.757812 46.179688 C 101.574219 55.667969 98.058594 56.941406 97.910156 58.660156 C 97.761719 60.078125 100.453125 61.945312 100.75 63.066406 C 100.898438 63.589844 100.972656 64.039062 100.75 64.488281 C 100.375 65.085938 99.105469 65.90625 98.433594 65.980469 C 97.910156 65.980469 97.460938 65.757812 97.089844 65.382812 C 96.714844 64.933594 96.265625 64.039062 96.339844 63.367188 C 96.417969 62.769531 97.015625 61.945312 97.613281 61.648438 C 98.136719 61.421875 99.179688 61.421875 99.703125 61.722656 C 100.226562 62.019531 100.824219 62.917969 100.824219 63.515625 C 100.898438 64.113281 100.527344 65.085938 100.003906 65.457031 C 99.554688 65.832031 98.65625 66.132812 97.910156 65.832031 C 96.789062 65.457031 95.296875 63.292969 94.398438 62.019531 C 93.726562 60.976562 92.753906 60.152344 92.90625 58.957031 C 93.203125 56.863281 97.761719 53.726562 99.332031 51.035156 C 100.675781 48.71875 100.824219 45.132812 102.019531 44.085938 C 102.691406 43.488281 103.8125 43.265625 104.488281 43.5625 C 105.160156 43.863281 105.757812 46.179688 105.757812 46.179688 "/></clipPath><clipPath id="f39e671b92"><path d="M 0.859375 0.371094 L 13.804688 0.371094 L 13.804688 23 L 0.859375 23 Z M 0.859375 0.371094 "/></clipPath><clipPath id="5ab85e3533"><path d="M 13.757812 3.179688 C 9.574219 12.667969 6.058594 13.941406 5.910156 15.660156 C 5.761719 17.078125 8.453125 18.945312 8.75 20.066406 C 8.898438 20.589844 8.972656 21.039062 8.75 21.488281 C 8.375 22.085938 7.105469 22.90625 6.433594 22.980469 C 5.910156 22.980469 5.460938 22.757812 5.089844 22.382812 C 4.714844 21.933594 4.265625 21.039062 4.339844 20.367188 C 4.417969 19.769531 5.015625 18.945312 5.613281 18.648438 C 6.136719 18.421875 7.179688 18.421875 7.703125 18.722656 C 8.226562 19.019531 8.824219 19.917969 8.824219 20.515625 C 8.898438 21.113281 8.527344 22.085938 8.003906 22.457031 C 7.554688 22.832031 6.65625 23.132812 5.910156 22.832031 C 4.789062 22.457031 3.296875 20.292969 2.398438 19.019531 C 1.726562 17.976562 0.753906 17.152344 0.90625 15.957031 C 1.203125 13.863281 5.761719 10.726562 7.332031 8.035156 C 8.675781 5.71875 8.824219 2.132812 10.019531 1.085938 C 10.691406 0.488281 11.8125 0.265625 12.488281 0.5625 C 13.160156 0.863281 13.757812 3.179688 13.757812 3.179688 "/></clipPath><clipPath id="2284d605c5"><rect x="0" width="14" y="0" height="23"/></clipPath></defs><g id="a990307014"><g clip-rule="nonzero" clip-path="url(#92e8cfcb13)"><g clip-rule="nonzero" clip-path="url(#3857c37b46)"><g transform="matrix(1,0,0,1,84,182)"><g clip-path="url(#0cd906a396)"><g clip-rule="nonzero" clip-path="url(#d6c3003014)"><g clip-rule="nonzero" clip-path="url(#de12f0b5b7)"><rect x="0" width="7" height="18" y="0" style="fill:#ffffff;fill-opacity:1;stroke:none;"/></g></g></g></g></g></g><g clip-rule="nonzero" clip-path="url(#bf7c96871b)"><g clip-rule="nonzero" clip-path="url(#046dad16a9)"><g transform="matrix(1,0,0,1,2,69)"><g clip-path="url(#6fa0d2aadb)"><g clip-rule="nonzero" clip-path="url(#907aa07657)"><g clip-rule="nonzero" clip-path="url(#4b7c4494d8)"><rect x="0" width="110" height="94" y="0" style="fill:#ffffff;fill-opacity:1;stroke:none;"/></g></g></g></g></g></g><g clip-rule="nonzero" clip-path="url(#7cf401673c)"><g clip-rule="nonzero" clip-path="url(#1ee6e33aef)"><g transform="matrix(1,0,0,1,83,144)"><g clip-path="url(#6a0d595b53)"><g clip-rule="nonzero" clip-path="url(#c235dffdae)"><g clip-rule="nonzero" clip-path="url(#f6482d03c5)"><rect x="0" width="8" height="38" y="0" style="fill:#ffffff;fill-opacity:1;stroke:none;"/></g></g></g></g></g></g><g clip-rule="nonzero" clip-path="url(#b9ad9073d7)"><g clip-rule="nonzero" clip-path="url(#317342df9e)"><g transform="matrix(1,0,0,1,73,177)"><g clip-path="url(#6ba691e3ff)"><g clip-rule="nonzero" clip-path="url(#b7cdc6887e)"><g clip-rule="nonzero" clip-path="url(#564669bb70)"><rect x="0" width="18" height="19" y="0" style="fill:#ffffff;fill-opacity:1;stroke:none;"/></g></g></g></g></g></g><g clip-rule="nonzero" clip-path="url(#7fda00d1b7)"><g clip-rule="nonzero" clip-path="url(#0f4b95a46c)"><g transform="matrix(1,0,0,1,85,178)"><g clip-path="url(#64a771195b)"><g clip-rule="nonzero" clip-path="url(#0795927312)"><g clip-rule="nonzero" clip-path="url(#add66289e3)"><rect x="0" width="12" height="15" y="0" style="fill:#ffffff;fill-opacity:1;stroke:none;"/></g></g></g></g></g></g><g clip-rule="nonzero" clip-path="url(#0252a4f570)"><g clip-rule="nonzero" clip-path="url(#def2cae688)"><g transform="matrix(1,0,0,1,22,151)"><g clip-path="url(#e45f7b4d32)"><g clip-rule="nonzero" clip-path="url(#f8572b5be3)"><g clip-rule="nonzero" clip-path="url(#9f308fa266)"><rect x="0" width="34" height="13" y="0" style="fill:#ffffff;fill-opacity:1;stroke:none;"/></g></g></g></g></g></g><g clip-rule="nonzero" clip-path="url(#7c7ff20667)"><g clip-rule="nonzero" clip-path="url(#ddff8e5ea1)"><g transform="matrix(1,0,0,1,10,153)"><g clip-path="url(#ee221353fa)"><g clip-rule="nonzero" clip-path="url(#9217c127f9)"><g clip-rule="nonzero" clip-path="url(#5e9fadf469)"><rect x="0" width="17" height="11" y="0" style="fill:#ffffff;fill-opacity:1;stroke:none;"/></g></g></g></g></g></g><g clip-rule="nonzero" clip-path="url(#0ccc647d22)"><g clip-rule="nonzero" clip-path="url(#c3666cf930)"><g transform="matrix(1,0,0,1,9,161)"><g clip-path="url(#14408ad8b0)"><g clip-rule="nonzero" clip-path="url(#d3916d1a55)"><g clip-rule="nonzero" clip-path="url(#a8101fe0dd)"><rect x="0" width="23" height="11" y="0" style="fill:#ffffff;fill-opacity:1;stroke:none;"/></g></g></g></g></g></g><g clip-rule="nonzero" clip-path="url(#64dcabd1ca)"><g clip-rule="nonzero" clip-path="url(#285e694286)"><g transform="matrix(1,0,0,1,21,161)"><g clip-path="url(#436ecc9e47)"><g clip-rule="nonzero" clip-path="url(#17d3073be9)"><g clip-rule="nonzero" clip-path="url(#9ab1a65acb)"><rect x="0" width="8" height="17" y="0" style="fill:#ffffff;fill-opacity:1;stroke:none;"/></g></g></g></g></g></g><g clip-rule="nonzero" clip-path="url(#14056a1ad9)"><g clip-rule="nonzero" clip-path="url(#95a226f214)"><g transform="matrix(1,0,0,1,78,42)"><g clip-path="url(#76336f43d9)"><g clip-rule="nonzero" clip-path="url(#1343d27b4f)"><g clip-rule="nonzero" clip-path="url(#f86f0368d9)"><rect x="0" width="42" height="55" y="0" style="fill:#ffffff;fill-opacity:1;stroke:none;"/></g></g></g></g></g></g><g clip-rule="nonzero" clip-path="url(#6a470c4c90)"><g clip-rule="nonzero" clip-path="url(#f84f467e00)"><g transform="matrix(1,0,0,1,122,39)"><g clip-path="url(#be2c12e67c)"><g clip-rule="nonzero" clip-path="url(#b0b9f6bedf)"><g clip-rule="nonzero" clip-path="url(#b7388d35f1)"><rect x="0" width="52" height="7" y="0" style="fill:#ffffff;fill-opacity:1;stroke:none;"/></g></g></g></g></g></g><g clip-rule="nonzero" clip-path="url(#83622ef6d4)"><g clip-rule="nonzero" clip-path="url(#d479a64fb9)"><g transform="matrix(1,0,0,1,113,45)"><g clip-path="url(#8014838ede)"><g clip-rule="nonzero" clip-path="url(#e990c91d1c)"><g clip-rule="nonzero" clip-path="url(#3aea7b7ab0)"><rect x="0" width="60" height="65" y="0" style="fill:#ffffff;fill-opacity:1;stroke:none;"/></g></g></g></g></g></g><g clip-rule="nonzero" clip-path="url(#4d0d6083e3)"><g clip-rule="nonzero" clip-path="url(#e419c806c9)"><g transform="matrix(1,0,0,1,109,106)"><g clip-path="url(#853008c766)"><g clip-rule="nonzero" clip-path="url(#dc1ca5caa8)"><g clip-rule="nonzero" clip-path="url(#0bb34d4eb4)"><rect x="0" width="103" height="69" y="0" style="fill:#ffffff;fill-opacity:1;stroke:none;"/></g></g></g></g></g></g><g clip-rule="nonzero" clip-path="url(#86539a432d)"><g clip-rule="nonzero" clip-path="url(#25ba8f9d34)"><g transform="matrix(1,0,0,1,19,47)"><g clip-path="url(#95c4e59bb7)"><g clip-rule="nonzero" clip-path="url(#f9e1b6222a)"><g clip-rule="nonzero" clip-path="url(#1a307e9bda)"><rect x="0" width="73" height="37" y="0" style="fill:#ffffff;fill-opacity:1;stroke:none;"/></g></g></g></g></g></g><g clip-rule="nonzero" clip-path="url(#61495baf49)"><g clip-rule="nonzero" clip-path="url(#6ab05b4944)"><g transform="matrix(1,0,0,1,36,65)"><g clip-path="url(#580cc36118)"><g clip-rule="nonzero" clip-path="url(#347605691d)"><g clip-rule="nonzero" clip-path="url(#f7d4bc59c9)"><rect x="0" width="16" height="11" y="0" style="fill:#ffffff;fill-opacity:1;stroke:none;"/></g></g></g></g></g></g><g clip-rule="nonzero" clip-path="url(#d0703caac8)"><g clip-rule="nonzero" clip-path="url(#667740aaca)"><g transform="matrix(1,0,0,1,39,69)"><g clip-path="url(#a80659bc5e)"><g clip-rule="nonzero" clip-path="url(#29d37a4274)"><g clip-rule="nonzero" clip-path="url(#8a22c111b4)"><rect x="0" width="6" height="10" y="0" style="fill:#ffffff;fill-opacity:1;stroke:none;"/></g></g></g></g></g></g><g clip-rule="nonzero" clip-path="url(#353d1f821b)"><g clip-rule="nonzero" clip-path="url(#ff87be0730)"><g transform="matrix(1,0,0,1,46,2)"><g clip-path="url(#619affb0ef)"><g clip-rule="nonzero" clip-path="url(#9fe0b4fabd)"><g clip-rule="nonzero" clip-path="url(#257ea46a5a)"><rect x="0" width="57" height="48" y="0" style="fill:#ffffff;fill-opacity:1;stroke:none;"/></g></g></g></g></g></g><g clip-rule="nonzero" clip-path="url(#61e510d017)"><g clip-rule="nonzero" clip-path="url(#71ba9cc020)"><g transform="matrix(1,0,0,1,89,28)"><g clip-path="url(#afd2884d9b)"><g clip-rule="nonzero" clip-path="url(#6926968f00)"><g clip-rule="nonzero" clip-path="url(#84cebf5962)"><rect x="0" width="6" height="8" y="0" style="fill:#ffffff;fill-opacity:1;stroke:none;"/></g></g></g></g></g></g><g clip-rule="nonzero" clip-path="url(#564180825a)"><g clip-rule="nonzero" clip-path="url(#02ab29e9c0)"><g transform="matrix(1,0,0,1,88,32)"><g clip-path="url(#f7a80d812d)"><g clip-rule="nonzero" clip-path="url(#e12fd5d79d)"><g clip-rule="nonzero" clip-path="url(#eccf22a5af)"><rect x="0" width="18" height="14" y="0" style="fill:#ffffff;fill-opacity:1;stroke:none;"/></g></g></g></g></g></g><g clip-rule="nonzero" clip-path="url(#505566641b)"><g clip-rule="nonzero" clip-path="url(#4c2ae678cc)"><g transform="matrix(1,0,0,1,92,43)"><g clip-path="url(#2284d605c5)"><g clip-rule="nonzero" clip-path="url(#f39e671b92)"><g clip-rule="nonzero" clip-path="url(#5ab85e3533)"><rect x="0" width="14" height="23" y="0" style="fill:#ffffff;fill-opacity:1;stroke:none;"/></g></g></g></g></g></g></g></svg>